<?xml version="1.0" encoding="utf-8"?>
<!-- Generator: Adobe Illustrator 26.5.0, SVG Export Plug-In . SVG Version: 6.00 Build 0)  -->
<svg version="1.1" id="레이어_1" xmlns="http://www.w3.org/2000/svg" xmlns:xlink="http://www.w3.org/1999/xlink" x="0px"
	 y="0px" viewBox="0 0 262.14 243.71" style="enable-background:new 0 0 262.14 243.71;" xml:space="preserve">
<style type="text/css">
	.st0{fill:#808182;}
</style>
<g id="Mf4epB.tif">
	<g>
		<path class="st0" d="M0,122.91C2.11,74.49,22.79,38.3,64.17,14.77C84.38,3.28,106.56-1.26,129.72,0.29
			c8.72,0.58,17.51,2.21,25.95,4.51c18.07,4.92,34.17,13.83,48.03,26.49c22.67,20.72,35.9,46.36,39.56,76.9
			c1.87,15.63,0.49,30.99-3.54,46.17c-0.32,1.2-0.13,2.81,0.42,3.94c6.59,13.41,13.26,26.77,19.97,40.11
			c4.76,9.46,0.88,19.97-8.86,22.44c-3.73,0.94-7.9,0.45-11.84,0.17c-11.36-0.81-22.75-1.45-34.03-2.94
			c-5.92-0.78-10.11,1.19-14.72,4.41c-15.21,10.62-32.18,17.06-50.55,19.8c-25.18,3.75-49.26,0.04-71.95-11.33
			c-28.73-14.4-48.92-36.78-60.17-66.92c-2.49-6.66-4.22-13.69-5.54-20.69C1.1,136.29,0.7,129.04,0,122.91z M241.65,202.85
			c-0.47-1.08-0.75-1.84-1.11-2.56c-6.56-13.16-13.08-26.33-19.74-39.44c-1.11-2.18-1.2-4.04-0.45-6.36
			c9.09-28.14,7.11-55.56-7.06-81.51c-17.69-32.4-45.51-50.52-82.15-54.17c-24.85-2.47-48.12,3.56-68.32,18.38
			c-32.6,23.91-47.49,56.41-43.22,96.74c3.08,29.05,16.92,52.55,40.18,70.34c16.21,12.4,34.6,19.39,54.92,20.74
			c26.9,1.78,51.13-5.7,72.28-22.53c3.03-2.41,5.65-3.98,9.9-3.43c9.38,1.22,18.87,1.64,28.32,2.4
			C230.56,201.9,235.93,202.37,241.65,202.85z"/>
	</g>
</g>
</svg>
