<svg width="14" height="14" viewBox="0 0 14 14" fill="none" xmlns="http://www.w3.org/2000/svg">
<path d="M4.01867 12.7764L3.84403 12.686L3.65466 12.7389L0.976583 13.4859L0.976444 13.486C0.776932 13.5417 0.570095 13.4251 0.51441 13.2257L0.514401 13.2257C0.495968 13.1597 0.496 13.0899 0.514392 13.0241L0.514434 13.024L1.2618 10.3482L1.31476 10.1586L1.22421 9.98373C0.751197 9.07043 0.5 8.05338 0.5 6.99941C0.5 3.40992 3.41011 0.5 7 0.5C10.5899 0.5 13.5 3.40992 13.5 6.99941C13.5 10.5889 10.5899 13.4988 7 13.4988C5.94721 13.4988 4.93124 13.2483 4.01867 12.7764Z" stroke="black"/>
</svg>
