<svg width="530" height="209" viewBox="0 0 530 209" fill="none" xmlns="http://www.w3.org/2000/svg">
<g filter="url(#filter0_d_693_14)">
<g filter="url(#filter1_d_693_14)">
<rect x="6" y="1" width="515.806" height="195" rx="15" fill="#FFFDE9"/>
</g>
<g filter="url(#filter2_d_693_14)">
<path d="M450.516 82.4678C450.694 82.4751 450.868 82.4823 451.045 82.4823C457.361 82.4823 462.48 77.3627 462.48 71.0475C462.48 64.7323 457.361 59.6128 451.045 59.6128C450.868 59.6128 450.69 59.6164 450.516 59.6273V59.6128H438.85C425.846 59.6164 415.306 69.8519 415.306 82.4823H426.335L450.516 82.4678Z" fill="url(#paint0_linear_693_14)"/>
<path d="M451.045 93.1426C450.868 93.1426 450.69 93.1462 450.516 93.1571V93.1426H415.306L415.321 128.353C415.314 128.53 415.306 128.704 415.306 128.882C415.306 135.197 420.426 140.316 426.741 140.316C433.056 140.316 438.176 135.197 438.176 128.882C438.176 128.704 438.172 128.527 438.161 128.353H438.176V116.686C438.176 116.458 438.165 116.229 438.158 116.005L450.52 115.998C450.698 116.005 450.872 116.012 451.049 116.012C457.364 116.012 462.484 110.893 462.484 104.577C462.484 98.2621 457.364 93.1426 451.049 93.1426H451.045Z" fill="url(#paint1_linear_693_14)"/>
<path d="M446.074 137.45V128.077H449.353V137.45H446.074Z" fill="black"/>
<path d="M451.23 130.889V128.077H454.509V130.889H451.23ZM451.23 137.45V131.512H454.509V137.45H451.23Z" fill="black"/>
<path d="M459.509 134.012C459.542 134.41 459.752 134.62 460.132 134.638H461.382V137.45H460.132C458.118 137.45 456.911 136.66 456.513 135.08C456.426 134.733 456.382 134.378 456.382 134.012V128.073H459.506V129.946H461.379V132.758H459.506V134.008L459.509 134.012Z" fill="black"/>
</g>
<path d="M55.4872 62.2983C53.9815 62.2983 52.6392 62.0213 51.4602 61.4673C50.2884 60.9134 49.358 60.1499 48.669 59.1768C47.9801 58.2038 47.6214 57.0888 47.593 55.8317H52.0675C52.1172 56.6768 52.4723 57.3622 53.1328 57.8878C53.7933 58.4134 54.5781 58.6761 55.4872 58.6761C56.2116 58.6761 56.8509 58.5163 57.4048 58.1967C57.9659 57.87 58.4027 57.419 58.7152 56.8438C59.0348 56.2614 59.1946 55.5937 59.1946 54.8409C59.1946 54.0739 59.0313 53.3991 58.7045 52.8168C58.3849 52.2344 57.9411 51.7798 57.3729 51.4531C56.8047 51.1264 56.1548 50.9595 55.4233 50.9524C54.7841 50.9524 54.1626 51.0838 53.5589 51.3466C52.9624 51.6094 52.4972 51.968 52.1634 52.4226L48.0618 51.6875L49.0952 40.1818H62.4332V43.9531H52.8984L52.3338 49.4183H52.4616C52.8452 48.8786 53.424 48.4311 54.1982 48.076C54.9723 47.7209 55.8388 47.5433 56.7976 47.5433C58.1115 47.5433 59.2834 47.8523 60.3132 48.4702C61.343 49.0881 62.1562 49.9368 62.7528 51.0163C63.3494 52.0888 63.6442 53.3246 63.6371 54.7237C63.6442 56.1939 63.3033 57.5007 62.6143 58.6442C61.9325 59.7805 60.9773 60.6754 59.7486 61.3288C58.527 61.9751 57.1065 62.2983 55.4872 62.2983ZM71.1264 59.017L71.0092 60.1889C70.9169 61.1264 70.7393 62.0604 70.4766 62.9908C70.2209 63.9283 69.951 64.777 69.6669 65.5369C69.3899 66.2969 69.1662 66.8935 68.9957 67.3267H66.0554C66.1619 66.9077 66.3075 66.3217 66.4922 65.5689C66.6768 64.8232 66.8509 63.9851 67.0142 63.0547C67.1776 62.1243 67.2805 61.1761 67.3232 60.2102L67.3764 59.017H71.1264ZM82.9091 62.4794C81.0767 62.4723 79.5 62.0213 78.179 61.1264C76.8651 60.2315 75.853 58.9354 75.1428 57.2379C74.4396 55.5405 74.0916 53.4986 74.0987 51.1122C74.0987 48.733 74.4503 46.7053 75.1534 45.0291C75.8636 43.353 76.8757 42.0781 78.1896 41.2045C79.5107 40.3239 81.0838 39.8835 82.9091 39.8835C84.7344 39.8835 86.304 40.3239 87.6179 41.2045C88.9389 42.0852 89.9545 43.3636 90.6648 45.0398C91.375 46.7088 91.7266 48.733 91.7195 51.1122C91.7195 53.5057 91.3643 55.5511 90.6541 57.2486C89.951 58.946 88.9425 60.2422 87.6286 61.1371C86.3146 62.032 84.7415 62.4794 82.9091 62.4794ZM82.9091 58.6548C84.1591 58.6548 85.157 58.0263 85.9027 56.7692C86.6484 55.5121 87.0178 53.6264 87.0107 51.1122C87.0107 49.4574 86.8402 48.0795 86.4993 46.9787C86.1655 45.8778 85.6896 45.0504 85.0717 44.4964C84.4609 43.9425 83.7401 43.6655 82.9091 43.6655C81.6662 43.6655 80.6719 44.2869 79.9261 45.5298C79.1804 46.7727 78.804 48.6335 78.7969 51.1122C78.7969 52.7884 78.9638 54.1875 79.2976 55.3097C79.6385 56.4247 80.1179 57.2628 80.7358 57.8239C81.3537 58.3778 82.0781 58.6548 82.9091 58.6548ZM103.563 62.4794C101.731 62.4723 100.154 62.0213 98.8333 61.1264C97.5194 60.2315 96.5073 58.9354 95.7971 57.2379C95.0939 55.5405 94.7459 53.4986 94.753 51.1122C94.753 48.733 95.1046 46.7053 95.8077 45.0291C96.5179 43.353 97.53 42.0781 98.8439 41.2045C100.165 40.3239 101.738 39.8835 103.563 39.8835C105.389 39.8835 106.958 40.3239 108.272 41.2045C109.593 42.0852 110.609 43.3636 111.319 45.0398C112.029 46.7088 112.381 48.733 112.374 51.1122C112.374 53.5057 112.019 55.5511 111.308 57.2486C110.605 58.946 109.597 60.2422 108.283 61.1371C106.969 62.032 105.396 62.4794 103.563 62.4794ZM103.563 58.6548C104.813 58.6548 105.811 58.0263 106.557 56.7692C107.303 55.5121 107.672 53.6264 107.665 51.1122C107.665 49.4574 107.494 48.0795 107.154 46.9787C106.82 45.8778 106.344 45.0504 105.726 44.4964C105.115 43.9425 104.394 43.6655 103.563 43.6655C102.32 43.6655 101.326 44.2869 100.58 45.5298C99.8347 46.7727 99.4583 48.6335 99.4512 51.1122C99.4512 52.7884 99.6181 54.1875 99.9519 55.3097C100.293 56.4247 100.772 57.2628 101.39 57.8239C102.008 58.3778 102.732 58.6548 103.563 58.6548ZM124.218 62.4794C122.385 62.4723 120.809 62.0213 119.488 61.1264C118.174 60.2315 117.162 58.9354 116.451 57.2379C115.748 55.5405 115.4 53.4986 115.407 51.1122C115.407 48.733 115.759 46.7053 116.462 45.0291C117.172 43.353 118.184 42.0781 119.498 41.2045C120.819 40.3239 122.392 39.8835 124.218 39.8835C126.043 39.8835 127.613 40.3239 128.926 41.2045C130.248 42.0852 131.263 43.3636 131.973 45.0398C132.684 46.7088 133.035 48.733 133.028 51.1122C133.028 53.5057 132.673 55.5511 131.963 57.2486C131.26 58.946 130.251 60.2422 128.937 61.1371C127.623 62.032 126.05 62.4794 124.218 62.4794ZM124.218 58.6548C125.468 58.6548 126.466 58.0263 127.211 56.7692C127.957 55.5121 128.326 53.6264 128.319 51.1122C128.319 49.4574 128.149 48.0795 127.808 46.9787C127.474 45.8778 126.998 45.0504 126.38 44.4964C125.77 43.9425 125.049 43.6655 124.218 43.6655C122.975 43.6655 121.98 44.2869 121.235 45.5298C120.489 46.7727 120.113 48.6335 120.105 51.1122C120.105 52.7884 120.272 54.1875 120.606 55.3097C120.947 56.4247 121.426 57.2628 122.044 57.8239C122.662 58.3778 123.387 58.6548 124.218 58.6548ZM142.979 51.14V57.23H146.969V51.14H142.979ZM155.159 36.89V57.92H159.149V36.89H155.159ZM139.139 61.01V64.19H159.749V61.01H139.139ZM139.139 55.94V61.85H143.129V55.94H139.139ZM136.139 52.34C141.149 52.34 147.659 52.19 153.569 51.2L153.329 48.35C147.509 49.1 140.729 49.16 135.659 49.16L136.139 52.34ZM149.909 53.03V55.76H156.029V53.03H149.909ZM144.599 37.85C140.519 37.85 137.669 39.86 137.669 42.8C137.669 45.77 140.519 47.75 144.599 47.75C148.649 47.75 151.499 45.77 151.499 42.8C151.499 39.86 148.649 37.85 144.599 37.85ZM144.599 40.76C146.429 40.76 147.719 41.45 147.719 42.8C147.719 44.15 146.429 44.84 144.599 44.84C142.739 44.84 141.449 44.15 141.449 42.8C141.449 41.45 142.739 40.76 144.599 40.76Z" fill="#FF9B3F"/>
<path d="M55.1339 89.8182V108H51.2898V93.467H51.1832L47.0195 96.0771V92.668L51.5206 89.8182H55.1339ZM59.4552 108V105.23L65.9271 99.2376C66.4775 98.7049 66.9392 98.2255 67.3121 97.7994C67.6908 97.3732 67.9779 96.956 68.1732 96.5476C68.3685 96.1333 68.4662 95.6864 68.4662 95.207C68.4662 94.6744 68.3448 94.2157 68.1022 93.831C67.8595 93.4403 67.5281 93.1415 67.1079 92.9343C66.6876 92.7212 66.2112 92.6147 65.6785 92.6147C65.1222 92.6147 64.6369 92.7272 64.2226 92.9521C63.8083 93.177 63.4887 93.4995 63.2638 93.9197C63.0389 94.34 62.9264 94.8401 62.9264 95.4201H59.2776C59.2776 94.2305 59.5469 93.1977 60.0855 92.3217C60.6241 91.4458 61.3787 90.7681 62.3493 90.2887C63.32 89.8093 64.4386 89.5696 65.7052 89.5696C67.0073 89.5696 68.1407 89.8004 69.1054 90.2621C70.076 90.7178 70.8306 91.3511 71.3692 92.1619C71.9078 92.9728 72.1771 93.902 72.1771 94.9496C72.1771 95.6361 72.041 96.3138 71.7687 96.9826C71.5024 97.6514 71.026 98.3942 70.3394 99.2109C69.6528 100.022 68.6852 100.995 67.4363 102.132L64.7819 104.733V104.857H72.4168V108H59.4552ZM80.3285 96.475V100.5H83.6535V96.475H80.3285ZM90.9035 87.075V100.475H94.2285V87.075H90.9035ZM75.1035 97.5C79.4285 97.525 84.7035 97.475 89.7285 96.775L89.5535 94.725C84.6785 95.2 79.2035 95.2 74.7535 95.2L75.1035 97.5ZM78.0285 101.175V103.425H90.9285V104.525H78.0785V108.425H81.3535V106.6H94.2285V101.175H78.0285ZM78.0785 107.8V110.075H94.7535V107.8H78.0785ZM86.8035 97.8V99.775H91.9285V97.8H86.8035ZM82.1035 87.4C78.6285 87.4 76.3035 88.775 76.3035 90.875C76.3035 93 78.6285 94.35 82.1035 94.35C85.5535 94.35 87.8785 93 87.8785 90.875C87.8785 88.775 85.5535 87.4 82.1035 87.4ZM82.1035 89.575C83.7535 89.575 84.7785 90.025 84.7785 90.875C84.7785 91.725 83.7535 92.15 82.1035 92.15C80.4285 92.15 79.4035 91.725 79.4035 90.875C79.4035 90.025 80.4285 89.575 82.1035 89.575ZM108.713 91.275V92.1C108.713 94.725 107.113 97.375 103.363 98.475L104.938 101.075C109.338 99.775 111.388 96.15 111.388 92.1V91.275H108.713ZM109.338 91.275V92.1C109.338 95.9 111.413 99.3 115.838 100.475L117.338 97.925C113.638 96.925 112.038 94.475 112.038 92.1V91.275H109.338ZM104.163 89.425V92.025H116.588V89.425H104.163ZM108.713 87V90.525H112.038V87H108.713ZM115.988 93.2V95.9H120.388V93.2H115.988ZM119.563 87.075V102.825H122.888V87.075H119.563ZM113.438 101.525V101.875C113.438 104.125 110.988 106.85 106.138 107.55L107.338 110.15C113.113 109.325 116.263 105.7 116.263 101.875V101.525H113.438ZM114.013 101.525V101.875C114.013 105.875 117.163 109.3 122.913 110.15L124.163 107.55C119.188 106.875 116.838 104.275 116.838 101.875V101.525H114.013ZM140.872 89.65V90.325C140.872 92.7 138.422 95.3 133.322 95.925L134.547 98.525C140.422 97.725 143.747 94.4 143.747 90.325V89.65H140.872ZM141.822 89.65V90.325C141.822 94.4 145.147 97.725 151.047 98.525L152.247 95.925C147.147 95.3 144.697 92.7 144.697 90.325V89.65H141.822ZM141.047 101.75V110.25H144.347V101.75H141.047ZM132.322 99.85V102.5H153.247V99.85H132.322ZM134.172 88.25V90.875H151.347V88.25H134.172ZM155.295 98.5V101.15H176.245V98.5H155.295ZM164.37 100.175V105.05H167.72V100.175H164.37ZM157.87 88.05V96.65H173.595V88.05H157.87ZM170.32 90.65V94.05H161.12V90.65H170.32ZM157.72 107.175V109.825H173.945V107.175H157.72ZM157.72 103.1V108.05H161.02V103.1H157.72ZM191.193 108.249C189.939 108.249 188.82 108.018 187.838 107.556C186.861 107.094 186.086 106.458 185.512 105.647C184.938 104.837 184.639 103.907 184.615 102.86H188.344C188.385 103.564 188.681 104.135 189.231 104.573C189.782 105.011 190.436 105.23 191.193 105.23C191.797 105.23 192.33 105.097 192.791 104.831C193.259 104.558 193.623 104.183 193.883 103.703C194.15 103.218 194.283 102.661 194.283 102.034C194.283 101.395 194.147 100.833 193.875 100.347C193.608 99.862 193.238 99.4832 192.765 99.2109C192.291 98.9387 191.75 98.7996 191.14 98.7937C190.608 98.7937 190.09 98.9032 189.587 99.1222C189.089 99.3411 188.702 99.64 188.424 100.019L185.006 99.4062L185.867 89.8182H196.982V92.9609H189.036L188.566 97.5153H188.672C188.992 97.0655 189.474 96.6926 190.119 96.3967C190.764 96.1007 191.486 95.9528 192.285 95.9528C193.38 95.9528 194.357 96.2102 195.215 96.7251C196.073 97.2401 196.751 97.9473 197.248 98.8469C197.745 99.7406 197.991 100.77 197.985 101.936C197.991 103.162 197.707 104.251 197.133 105.203C196.565 106.15 195.768 106.896 194.745 107.441C193.727 107.979 192.543 108.249 191.193 108.249ZM205.392 91.6V92.5C205.392 95.3 203.792 98.1 200.042 99.275L201.642 101.875C206.042 100.5 208.092 96.725 208.092 92.5V91.6H205.392ZM205.992 91.6V92.5C205.992 96.55 208.117 100.2 212.492 101.5L214.092 98.9C210.342 97.775 208.717 95.1 208.717 92.5V91.6H205.992ZM200.842 89.8V92.4H213.267V89.8H200.842ZM205.392 87.25V90.775H208.717V87.25H205.392ZM212.542 93.8V96.525H217.917V93.8H212.542ZM216.242 87.1V104.225H219.567V87.1H216.242ZM204.292 107.175V109.825H220.092V107.175H204.292ZM204.292 102.8V108.925H207.617V102.8H204.292ZM229.215 98.95V104.025H232.54V98.95H229.215ZM239.365 87.075V104.6H242.69V87.075H239.365ZM226.015 107.175V109.825H243.19V107.175H226.015ZM226.015 102.95V107.875H229.34V102.95H226.015ZM223.515 99.95C227.69 99.95 233.115 99.825 238.04 99L237.84 96.625C232.99 97.25 227.34 97.3 223.115 97.3L223.515 99.95ZM234.99 100.525V102.8H240.09V100.525H234.99ZM230.565 87.875C227.165 87.875 224.79 89.55 224.79 92C224.79 94.475 227.165 96.125 230.565 96.125C233.94 96.125 236.315 94.475 236.315 92C236.315 89.55 233.94 87.875 230.565 87.875ZM230.565 90.3C232.09 90.3 233.165 90.875 233.165 92C233.165 93.125 232.09 93.7 230.565 93.7C229.015 93.7 227.94 93.125 227.94 92C227.94 90.875 229.015 90.3 230.565 90.3ZM266.875 87.05V99.55H270.2V87.05H266.875ZM268.875 92V94.7H273.275V92H268.875ZM254.9 100.475V102.875H266.925V104.1H254.95V108.45H258.25V106.35H270.2V100.475H254.9ZM254.95 107.625V110.075H270.875V107.625H254.95ZM251.975 88.775V91.275H265.6V88.775H251.975ZM258.8 91.825C255.35 91.825 253.1 93.3 253.1 95.625C253.1 97.95 255.35 99.375 258.8 99.375C262.225 99.375 264.475 97.95 264.475 95.625C264.475 93.3 262.225 91.825 258.8 91.825ZM258.8 94.15C260.35 94.15 261.3 94.65 261.3 95.625C261.3 96.55 260.35 97.05 258.8 97.05C257.25 97.05 256.3 96.55 256.3 95.625C256.3 94.65 257.25 94.15 258.8 94.15ZM257.125 86.9V90.55H260.45V86.9H257.125ZM290.873 87.1V103.725H294.223V87.1H290.873ZM278.798 107.175V109.825H294.798V107.175H278.798ZM278.798 102.05V108.25H282.123V102.05H278.798ZM281.623 88.55C278.073 88.55 275.323 91 275.323 94.425C275.323 97.825 278.073 100.3 281.623 100.3C285.173 100.3 287.898 97.825 287.898 94.425C287.898 91 285.173 88.55 281.623 88.55ZM281.623 91.425C283.323 91.425 284.648 92.525 284.648 94.425C284.648 96.3 283.323 97.4 281.623 97.4C279.898 97.4 278.573 96.3 278.573 94.425C278.573 92.525 279.898 91.425 281.623 91.425Z" fill="black"/>
<path d="M52.696 147.824V150.176H53.704V147.824H52.696ZM52.696 144.008V144.248C52.696 145.712 51.592 146.924 49.984 147.404L50.44 148.184C52.264 147.608 53.5 146.144 53.5 144.248V144.008H52.696ZM52.888 144.008V144.248C52.888 146.084 54.148 147.524 55.972 148.064L56.428 147.296C54.832 146.828 53.692 145.652 53.692 144.248V144.008H52.888ZM50.236 143.504V144.308H56.2V143.504H50.236ZM52.696 142.16V143.852H53.704V142.16H52.696ZM57.436 142.076V152.948H58.432V142.076H57.436ZM49.792 150.716C51.724 150.704 54.376 150.692 56.812 150.236L56.728 149.504C54.364 149.864 51.628 149.876 49.648 149.876L49.792 150.716ZM60.6391 150.704V151.532H70.4671V150.704H60.6391ZM65.0071 148.076V150.98H65.9911V148.076H65.0071ZM64.9831 142.808V143.648C64.9831 145.436 62.9311 147.032 61.0231 147.38L61.4431 148.208C63.6271 147.752 65.8471 145.964 65.8471 143.648V142.808H64.9831ZM65.1631 142.808V143.648C65.1631 145.964 67.3831 147.752 69.5671 148.208L69.9991 147.38C68.0911 147.032 66.0271 145.448 66.0271 143.648V142.808H65.1631ZM79.1979 143.156V143.612C79.1979 145.04 77.3379 146.288 75.4299 146.564L75.8139 147.356C77.9979 146.984 80.0619 145.556 80.0619 143.612V143.156H79.1979ZM79.4499 143.156V143.612C79.4499 145.556 81.5019 146.984 83.6979 147.356L84.0699 146.564C82.1739 146.288 80.3019 145.04 80.3019 143.612V143.156H79.4499ZM79.2339 148.796V152.936H80.2179V148.796H79.2339ZM74.8539 148.268V149.084H84.6579V148.268H74.8539ZM75.7659 142.76V143.564H83.7099V142.76H75.7659ZM85.881 147.632V148.448H95.709V147.632H85.881ZM90.369 148.136V150.632H91.365V148.136H90.369ZM87.141 142.592V146.408H94.437V142.592H87.141ZM93.453 143.396V145.604H88.113V143.396H93.453ZM87.129 151.88V152.696H94.617V151.88H87.129ZM87.129 149.588V152.168H88.113V149.588H87.129ZM98.18 142.652V143.468H105.164V142.652H98.18ZM96.932 146.648V147.464H106.76V146.648H96.932ZM104.516 142.652V143.456C104.516 144.356 104.516 145.4 104.156 146.888L105.128 146.936C105.488 145.436 105.488 144.38 105.488 143.456V142.652H104.516ZM98.132 148.94V152.792H105.524V148.94H98.132ZM104.552 149.732V151.988H99.104V149.732H104.552ZM110.539 142.772C109.099 142.772 108.067 143.816 108.067 145.34C108.067 146.84 109.099 147.884 110.539 147.884C111.955 147.884 112.999 146.84 112.999 145.34C112.999 143.816 111.955 142.772 110.539 142.772ZM110.539 143.612C111.427 143.612 112.099 144.332 112.099 145.34C112.099 146.336 111.427 147.056 110.539 147.056C109.639 147.056 108.979 146.336 108.979 145.34C108.979 144.332 109.639 143.612 110.539 143.612ZM116.155 142.1V148.544H117.103V142.1H116.155ZM114.403 144.872V145.7H116.455V144.872H114.403ZM113.839 142.292V148.484H114.787V142.292H113.839ZM109.831 149.144V149.96H116.119V152.936H117.103V149.144H109.831ZM122.425 152V151.045L125.379 147.986C125.694 147.653 125.954 147.362 126.158 147.112C126.366 146.859 126.521 146.619 126.623 146.392C126.725 146.165 126.776 145.923 126.776 145.668C126.776 145.378 126.708 145.128 126.572 144.918C126.435 144.705 126.249 144.541 126.013 144.428C125.778 144.311 125.512 144.253 125.217 144.253C124.904 144.253 124.631 144.317 124.398 144.445C124.165 144.572 123.987 144.753 123.862 144.986C123.737 145.219 123.674 145.491 123.674 145.804H122.417C122.417 145.273 122.539 144.808 122.783 144.411C123.028 144.013 123.363 143.705 123.789 143.486C124.215 143.264 124.7 143.153 125.242 143.153C125.79 143.153 126.273 143.263 126.691 143.482C127.112 143.697 127.44 143.993 127.675 144.368C127.911 144.74 128.029 145.161 128.029 145.629C128.029 145.953 127.968 146.27 127.846 146.58C127.727 146.889 127.518 147.234 127.219 147.615C126.921 147.993 126.506 148.452 125.975 148.991L124.241 150.807V150.871H128.17V152H122.425ZM132.823 152.145C132.15 152.142 131.575 151.964 131.097 151.612C130.62 151.26 130.255 150.747 130.002 150.074C129.749 149.401 129.623 148.589 129.623 147.641C129.623 146.695 129.749 145.886 130.002 145.216C130.258 144.545 130.624 144.034 131.102 143.682C131.582 143.33 132.156 143.153 132.823 143.153C133.491 143.153 134.063 143.331 134.54 143.686C135.018 144.038 135.383 144.55 135.636 145.22C135.891 145.888 136.019 146.695 136.019 147.641C136.019 148.592 135.893 149.405 135.64 150.078C135.387 150.749 135.022 151.261 134.545 151.616C134.067 151.969 133.494 152.145 132.823 152.145ZM132.823 151.007C133.414 151.007 133.876 150.719 134.208 150.142C134.543 149.565 134.711 148.732 134.711 147.641C134.711 146.916 134.634 146.304 134.481 145.804C134.33 145.301 134.113 144.92 133.829 144.662C133.548 144.401 133.212 144.27 132.823 144.27C132.235 144.27 131.773 144.56 131.438 145.139C131.103 145.719 130.934 146.553 130.931 147.641C130.931 148.368 131.006 148.983 131.157 149.486C131.31 149.986 131.528 150.365 131.809 150.624C132.09 150.879 132.428 151.007 132.823 151.007ZM138.889 150.807L138.825 151.271C138.783 151.612 138.71 151.967 138.608 152.337C138.509 152.709 138.405 153.054 138.297 153.372C138.192 153.69 138.105 153.943 138.037 154.131H137.134C137.17 153.955 137.222 153.716 137.287 153.415C137.352 153.116 137.416 152.783 137.479 152.413C137.541 152.044 137.588 151.668 137.619 151.284L137.662 150.807H138.889ZM143.393 152.145C142.72 152.142 142.145 151.964 141.668 151.612C141.19 151.26 140.825 150.747 140.572 150.074C140.32 149.401 140.193 148.589 140.193 147.641C140.193 146.695 140.32 145.886 140.572 145.216C140.828 144.545 141.195 144.034 141.672 143.682C142.152 143.33 142.726 143.153 143.393 143.153C144.061 143.153 144.634 143.331 145.111 143.686C145.588 144.038 145.953 144.55 146.206 145.22C146.462 145.888 146.589 146.695 146.589 147.641C146.589 148.592 146.463 149.405 146.21 150.078C145.957 150.749 145.592 151.261 145.115 151.616C144.638 151.969 144.064 152.145 143.393 152.145ZM143.393 151.007C143.984 151.007 144.446 150.719 144.778 150.142C145.114 149.565 145.281 148.732 145.281 147.641C145.281 146.916 145.205 146.304 145.051 145.804C144.901 145.301 144.683 144.92 144.399 144.662C144.118 144.401 143.783 144.27 143.393 144.27C142.805 144.27 142.344 144.56 142.009 145.139C141.673 145.719 141.504 146.553 141.501 147.641C141.501 148.368 141.577 148.983 141.727 149.486C141.881 149.986 142.098 150.365 142.379 150.624C142.661 150.879 142.999 151.007 143.393 151.007ZM151.14 152.145C150.466 152.142 149.891 151.964 149.414 151.612C148.936 151.26 148.571 150.747 148.319 150.074C148.066 149.401 147.939 148.589 147.939 147.641C147.939 146.695 148.066 145.886 148.319 145.216C148.574 144.545 148.941 144.034 149.418 143.682C149.898 143.33 150.472 143.153 151.14 143.153C151.807 143.153 152.38 143.331 152.857 143.686C153.334 144.038 153.699 144.55 153.952 145.22C154.208 145.888 154.336 146.695 154.336 147.641C154.336 148.592 154.209 149.405 153.956 150.078C153.703 150.749 153.338 151.261 152.861 151.616C152.384 151.969 151.81 152.145 151.14 152.145ZM151.14 151.007C151.73 151.007 152.192 150.719 152.525 150.142C152.86 149.565 153.027 148.732 153.027 147.641C153.027 146.916 152.951 146.304 152.797 145.804C152.647 145.301 152.429 144.92 152.145 144.662C151.864 144.401 151.529 144.27 151.14 144.27C150.551 144.27 150.09 144.56 149.755 145.139C149.419 145.719 149.25 146.553 149.248 147.641C149.248 148.368 149.323 148.983 149.473 149.486C149.627 149.986 149.844 150.365 150.125 150.624C150.407 150.879 150.745 151.007 151.14 151.007ZM158.886 152.145C158.212 152.142 157.637 151.964 157.16 151.612C156.683 151.26 156.317 150.747 156.065 150.074C155.812 149.401 155.685 148.589 155.685 147.641C155.685 146.695 155.812 145.886 156.065 145.216C156.32 144.545 156.687 144.034 157.164 143.682C157.644 143.33 158.218 143.153 158.886 143.153C159.553 143.153 160.126 143.331 160.603 143.686C161.08 144.038 161.445 144.55 161.698 145.22C161.954 145.888 162.082 146.695 162.082 147.641C162.082 148.592 161.955 149.405 161.702 150.078C161.45 150.749 161.085 151.261 160.607 151.616C160.13 151.969 159.556 152.145 158.886 152.145ZM158.886 151.007C159.477 151.007 159.938 150.719 160.271 150.142C160.606 149.565 160.773 148.732 160.773 147.641C160.773 146.916 160.697 146.304 160.543 145.804C160.393 145.301 160.175 144.92 159.891 144.662C159.61 144.401 159.275 144.27 158.886 144.27C158.298 144.27 157.836 144.56 157.501 145.139C157.165 145.719 156.996 146.553 156.994 147.641C156.994 148.368 157.069 148.983 157.219 149.486C157.373 149.986 157.59 150.365 157.871 150.624C158.153 150.879 158.491 151.007 158.886 151.007ZM166.426 147.548V149.96H167.422V147.548H166.426ZM171.238 142.088V150.344H172.234V142.088H171.238ZM164.83 151.88V152.696H172.498V151.88H164.83ZM164.83 149.54V152.108H165.826V149.54H164.83ZM163.426 147.92C165.394 147.92 168.022 147.884 170.362 147.512L170.29 146.78C167.986 147.08 165.298 147.104 163.294 147.104L163.426 147.92ZM169.03 148.496V149.228H171.49V148.496H169.03ZM166.822 142.532C165.226 142.532 164.146 143.276 164.146 144.416C164.146 145.568 165.226 146.312 166.822 146.312C168.406 146.312 169.486 145.568 169.486 144.416C169.486 143.276 168.406 142.532 166.822 142.532ZM166.822 143.276C167.83 143.276 168.538 143.72 168.538 144.416C168.538 145.112 167.83 145.556 166.822 145.556C165.802 145.556 165.094 145.112 165.094 144.416C165.094 143.72 165.802 143.276 166.822 143.276Z" fill="black"/>
<path d="M52.252 161.024V162.968C52.252 164.948 51.016 167.036 49.444 167.828L50.056 168.62C51.772 167.708 53.068 165.368 53.068 162.968V161.024H52.252ZM52.432 161.024V162.968C52.432 165.296 53.692 167.516 55.372 168.416L55.984 167.624C54.448 166.856 53.236 164.876 53.236 162.968V161.024H52.432ZM56.932 160.088V170.936H57.94V160.088H56.932ZM57.7 164.48V165.32H59.716V164.48H57.7ZM63.0511 163.76V165.812H64.0351V163.76H63.0511ZM67.0351 163.76V165.812H68.0191V163.76H67.0351ZM60.6271 165.452V166.256H70.4311V165.452H60.6271ZM65.5231 167.072C63.1951 167.072 61.8031 167.756 61.8031 168.992C61.8031 170.228 63.1951 170.924 65.5231 170.924C67.8511 170.924 69.2431 170.228 69.2431 168.992C69.2431 167.756 67.8511 167.072 65.5231 167.072ZM65.5231 167.84C67.2271 167.84 68.2351 168.26 68.2351 168.992C68.2351 169.736 67.2271 170.144 65.5231 170.144C63.8311 170.144 62.8111 169.736 62.8111 168.992C62.8111 168.26 63.8311 167.84 65.5231 167.84ZM65.5351 160.28C63.1711 160.28 61.7191 161.036 61.7191 162.308C61.7191 163.568 63.1711 164.312 65.5351 164.312C67.8871 164.312 69.3511 163.568 69.3511 162.308C69.3511 161.036 67.8871 160.28 65.5351 160.28ZM65.5351 161.06C67.2631 161.06 68.3311 161.516 68.3311 162.308C68.3311 163.088 67.2631 163.544 65.5351 163.544C63.8071 163.544 62.7391 163.088 62.7391 162.308C62.7391 161.516 63.8071 161.06 65.5351 161.06ZM79.5741 160.088V170.936H80.5701V160.088H79.5741ZM76.3941 161.252V161.42C76.3941 164.3 74.9421 166.604 71.8101 168.116L72.3381 168.92C75.9621 167.144 77.3781 164.396 77.3781 161.252H76.3941ZM72.3021 161.252V162.068H76.8261V161.252H72.3021ZM90.1332 160.088V168.02H91.1292V160.088H90.1332ZM90.8172 163.376V164.204H92.7372V163.376H90.8172ZM87.1692 160.928V161.36C87.1692 163.448 85.4532 165.128 82.7172 165.968L83.1492 166.784C86.2572 165.788 88.2252 163.736 88.2252 160.928H87.1692ZM83.1612 160.928V161.744H87.6732V160.928H83.1612ZM84.3612 169.88V170.696H91.6092V169.88H84.3612ZM84.3612 167.216V170.204H85.3572V167.216H84.3612ZM97.1715 170V169.045L100.125 165.986C100.44 165.653 100.7 165.362 100.904 165.112C101.112 164.859 101.267 164.619 101.369 164.392C101.471 164.165 101.522 163.923 101.522 163.668C101.522 163.378 101.454 163.128 101.318 162.918C101.181 162.705 100.995 162.541 100.76 162.428C100.524 162.311 100.258 162.253 99.9627 162.253C99.6502 162.253 99.3775 162.317 99.1445 162.445C98.9116 162.572 98.7326 162.753 98.6076 162.986C98.4826 163.219 98.4201 163.491 98.4201 163.804H97.163C97.163 163.273 97.2852 162.808 97.5295 162.411C97.7738 162.013 98.109 161.705 98.5352 161.486C98.9613 161.264 99.4457 161.153 99.9883 161.153C100.537 161.153 101.02 161.263 101.437 161.482C101.858 161.697 102.186 161.993 102.422 162.368C102.657 162.74 102.775 163.161 102.775 163.629C102.775 163.953 102.714 164.27 102.592 164.58C102.473 164.889 102.264 165.234 101.966 165.615C101.667 165.993 101.252 166.452 100.721 166.991L98.9869 168.807V168.871H102.916V170H97.1715ZM107.569 170.145C106.896 170.142 106.321 169.964 105.843 169.612C105.366 169.26 105.001 168.747 104.748 168.074C104.495 167.401 104.369 166.589 104.369 165.641C104.369 164.695 104.495 163.886 104.748 163.216C105.004 162.545 105.37 162.034 105.848 161.682C106.328 161.33 106.902 161.153 107.569 161.153C108.237 161.153 108.809 161.331 109.287 161.686C109.764 162.038 110.129 162.55 110.382 163.22C110.637 163.888 110.765 164.695 110.765 165.641C110.765 166.592 110.639 167.405 110.386 168.078C110.133 168.749 109.768 169.261 109.291 169.616C108.814 169.969 108.24 170.145 107.569 170.145ZM107.569 169.007C108.16 169.007 108.622 168.719 108.954 168.142C109.289 167.565 109.457 166.732 109.457 165.641C109.457 164.916 109.38 164.304 109.227 163.804C109.076 163.301 108.859 162.92 108.575 162.662C108.294 162.401 107.958 162.27 107.569 162.27C106.981 162.27 106.52 162.56 106.184 163.139C105.849 163.719 105.68 164.553 105.677 165.641C105.677 166.368 105.752 166.983 105.903 167.486C106.056 167.986 106.274 168.365 106.555 168.624C106.836 168.879 107.174 169.007 107.569 169.007ZM112.277 170V169.045L115.23 165.986C115.545 165.653 115.805 165.362 116.01 165.112C116.217 164.859 116.372 164.619 116.474 164.392C116.577 164.165 116.628 163.923 116.628 163.668C116.628 163.378 116.56 163.128 116.423 162.918C116.287 162.705 116.101 162.541 115.865 162.428C115.629 162.311 115.364 162.253 115.068 162.253C114.756 162.253 114.483 162.317 114.25 162.445C114.017 162.572 113.838 162.753 113.713 162.986C113.588 163.219 113.526 163.491 113.526 163.804H112.268C112.268 163.273 112.391 162.808 112.635 162.411C112.879 162.013 113.214 161.705 113.641 161.486C114.067 161.264 114.551 161.153 115.094 161.153C115.642 161.153 116.125 161.263 116.543 161.482C116.963 161.697 117.291 161.993 117.527 162.368C117.763 162.74 117.881 163.161 117.881 163.629C117.881 163.953 117.82 164.27 117.697 164.58C117.578 164.889 117.369 165.234 117.071 165.615C116.773 165.993 116.358 166.452 115.827 166.991L114.092 168.807V168.871H118.021V170H112.277ZM119.636 170V169.045L122.589 165.986C122.905 165.653 123.165 165.362 123.369 165.112C123.577 164.859 123.732 164.619 123.834 164.392C123.936 164.165 123.987 163.923 123.987 163.668C123.987 163.378 123.919 163.128 123.783 162.918C123.646 162.705 123.46 162.541 123.224 162.428C122.989 162.311 122.723 162.253 122.428 162.253C122.115 162.253 121.842 162.317 121.609 162.445C121.376 162.572 121.197 162.753 121.072 162.986C120.947 163.219 120.885 163.491 120.885 163.804H119.628C119.628 163.273 119.75 162.808 119.994 162.411C120.239 162.013 120.574 161.705 121 161.486C121.426 161.264 121.911 161.153 122.453 161.153C123.001 161.153 123.484 161.263 123.902 161.482C124.322 161.697 124.651 161.993 124.886 162.368C125.122 162.74 125.24 163.161 125.24 163.629C125.24 163.953 125.179 164.27 125.057 164.58C124.938 164.889 124.729 165.234 124.43 165.615C124.132 165.993 123.717 166.452 123.186 166.991L121.452 168.807V168.871H125.381V170H119.636ZM127.852 170.081C127.619 170.081 127.419 169.999 127.251 169.834C127.084 169.666 127 169.464 127 169.229C127 168.996 127.084 168.797 127.251 168.632C127.419 168.464 127.619 168.381 127.852 168.381C128.085 168.381 128.286 168.464 128.453 168.632C128.621 168.797 128.705 168.996 128.705 169.229C128.705 169.385 128.665 169.528 128.585 169.659C128.509 169.787 128.406 169.889 128.278 169.966C128.151 170.043 128.009 170.081 127.852 170.081ZM136.74 161.273V170H135.419V162.594H135.368L133.28 163.957V162.696L135.458 161.273H136.74ZM139.101 170V169.045L142.054 165.986C142.37 165.653 142.63 165.362 142.834 165.112C143.042 164.859 143.196 164.619 143.299 164.392C143.401 164.165 143.452 163.923 143.452 163.668C143.452 163.378 143.384 163.128 143.248 162.918C143.111 162.705 142.925 162.541 142.689 162.428C142.453 162.311 142.188 162.253 141.892 162.253C141.58 162.253 141.307 162.317 141.074 162.445C140.841 162.572 140.662 162.753 140.537 162.986C140.412 163.219 140.35 163.491 140.35 163.804H139.093C139.093 163.273 139.215 162.808 139.459 162.411C139.703 162.013 140.039 161.705 140.465 161.486C140.891 161.264 141.375 161.153 141.918 161.153C142.466 161.153 142.949 161.263 143.367 161.482C143.787 161.697 144.115 161.993 144.351 162.368C144.587 162.74 144.705 163.161 144.705 163.629C144.705 163.953 144.644 164.27 144.522 164.58C144.402 164.889 144.194 165.234 143.895 165.615C143.597 165.993 143.182 166.452 142.651 166.991L140.917 168.807V168.871H144.846V170H139.101ZM147.317 170.081C147.084 170.081 146.884 169.999 146.716 169.834C146.549 169.666 146.465 169.464 146.465 169.229C146.465 168.996 146.549 168.797 146.716 168.632C146.884 168.464 147.084 168.381 147.317 168.381C147.55 168.381 147.75 168.464 147.918 168.632C148.086 168.797 148.169 168.996 148.169 169.229C148.169 169.385 148.13 169.528 148.05 169.659C147.973 169.787 147.871 169.889 147.743 169.966C147.615 170.043 147.473 170.081 147.317 170.081ZM152.581 170.145C151.908 170.142 151.332 169.964 150.855 169.612C150.378 169.26 150.013 168.747 149.76 168.074C149.507 167.401 149.381 166.589 149.381 165.641C149.381 164.695 149.507 163.886 149.76 163.216C150.016 162.545 150.382 162.034 150.859 161.682C151.339 161.33 151.913 161.153 152.581 161.153C153.249 161.153 153.821 161.331 154.298 161.686C154.776 162.038 155.141 162.55 155.393 163.22C155.649 163.888 155.777 164.695 155.777 165.641C155.777 166.592 155.651 167.405 155.398 168.078C155.145 168.749 154.78 169.261 154.303 169.616C153.825 169.969 153.251 170.145 152.581 170.145ZM152.581 169.007C153.172 169.007 153.634 168.719 153.966 168.142C154.301 167.565 154.469 166.732 154.469 165.641C154.469 164.916 154.392 164.304 154.239 163.804C154.088 163.301 153.871 162.92 153.587 162.662C153.305 162.401 152.97 162.27 152.581 162.27C151.993 162.27 151.531 162.56 151.196 163.139C150.861 163.719 150.692 164.553 150.689 165.641C150.689 166.368 150.764 166.983 150.915 167.486C151.068 167.986 151.286 168.365 151.567 168.624C151.848 168.879 152.186 169.007 152.581 169.007ZM160.6 161.273V170H159.279V162.594H159.228L157.14 163.957V162.696L159.317 161.273H160.6ZM170.01 165.082V166.19H166.141V165.082H170.01ZM174.867 170V169.045L177.82 165.986C178.135 165.653 178.395 165.362 178.6 165.112C178.807 164.859 178.962 164.619 179.064 164.392C179.167 164.165 179.218 163.923 179.218 163.668C179.218 163.378 179.15 163.128 179.013 162.918C178.877 162.705 178.691 162.541 178.455 162.428C178.219 162.311 177.953 162.253 177.658 162.253C177.346 162.253 177.073 162.317 176.84 162.445C176.607 162.572 176.428 162.753 176.303 162.986C176.178 163.219 176.115 163.491 176.115 163.804H174.858C174.858 163.273 174.98 162.808 175.225 162.411C175.469 162.013 175.804 161.705 176.23 161.486C176.657 161.264 177.141 161.153 177.684 161.153C178.232 161.153 178.715 161.263 179.132 161.482C179.553 161.697 179.881 161.993 180.117 162.368C180.353 162.74 180.471 163.161 180.471 163.629C180.471 163.953 180.409 164.27 180.287 164.58C180.168 164.889 179.959 165.234 179.661 165.615C179.363 165.993 178.948 166.452 178.417 166.991L176.682 168.807V168.871H180.611V170H174.867ZM185.265 170.145C184.591 170.142 184.016 169.964 183.539 169.612C183.061 169.26 182.696 168.747 182.444 168.074C182.191 167.401 182.064 166.589 182.064 165.641C182.064 164.695 182.191 163.886 182.444 163.216C182.699 162.545 183.066 162.034 183.543 161.682C184.023 161.33 184.597 161.153 185.265 161.153C185.932 161.153 186.505 161.331 186.982 161.686C187.459 162.038 187.824 162.55 188.077 163.22C188.333 163.888 188.461 164.695 188.461 165.641C188.461 166.592 188.334 167.405 188.081 168.078C187.828 168.749 187.463 169.261 186.986 169.616C186.509 169.969 185.935 170.145 185.265 170.145ZM185.265 169.007C185.855 169.007 186.317 168.719 186.65 168.142C186.985 167.565 187.152 166.732 187.152 165.641C187.152 164.916 187.076 164.304 186.922 163.804C186.772 163.301 186.554 162.92 186.27 162.662C185.989 162.401 185.654 162.27 185.265 162.27C184.676 162.27 184.215 162.56 183.88 163.139C183.544 163.719 183.375 164.553 183.373 165.641C183.373 166.368 183.448 166.983 183.598 167.486C183.752 167.986 183.969 168.365 184.25 168.624C184.532 168.879 184.87 169.007 185.265 169.007ZM189.972 170V169.045L192.925 165.986C193.241 165.653 193.501 165.362 193.705 165.112C193.913 164.859 194.067 164.619 194.17 164.392C194.272 164.165 194.323 163.923 194.323 163.668C194.323 163.378 194.255 163.128 194.119 162.918C193.982 162.705 193.796 162.541 193.56 162.428C193.325 162.311 193.059 162.253 192.763 162.253C192.451 162.253 192.178 162.317 191.945 162.445C191.712 162.572 191.533 162.753 191.408 162.986C191.283 163.219 191.221 163.491 191.221 163.804H189.964C189.964 163.273 190.086 162.808 190.33 162.411C190.575 162.013 190.91 161.705 191.336 161.486C191.762 161.264 192.246 161.153 192.789 161.153C193.337 161.153 193.82 161.263 194.238 161.482C194.658 161.697 194.987 161.993 195.222 162.368C195.458 162.74 195.576 163.161 195.576 163.629C195.576 163.953 195.515 164.27 195.393 164.58C195.273 164.889 195.065 165.234 194.766 165.615C194.468 165.993 194.053 166.452 193.522 166.991L191.788 168.807V168.871H195.717V170H189.972ZM197.332 170V169.045L200.285 165.986C200.6 165.653 200.86 165.362 201.065 165.112C201.272 164.859 201.427 164.619 201.529 164.392C201.631 164.165 201.683 163.923 201.683 163.668C201.683 163.378 201.614 163.128 201.478 162.918C201.342 162.705 201.156 162.541 200.92 162.428C200.684 162.311 200.418 162.253 200.123 162.253C199.81 162.253 199.538 162.317 199.305 162.445C199.072 162.572 198.893 162.753 198.768 162.986C198.643 163.219 198.58 163.491 198.58 163.804H197.323C197.323 163.273 197.445 162.808 197.69 162.411C197.934 162.013 198.269 161.705 198.695 161.486C199.121 161.264 199.606 161.153 200.148 161.153C200.697 161.153 201.18 161.263 201.597 161.482C202.018 161.697 202.346 161.993 202.582 162.368C202.817 162.74 202.935 163.161 202.935 163.629C202.935 163.953 202.874 164.27 202.752 164.58C202.633 164.889 202.424 165.234 202.126 165.615C201.827 165.993 201.413 166.452 200.881 166.991L199.147 168.807V168.871H203.076V170H197.332ZM205.548 170.081C205.315 170.081 205.114 169.999 204.947 169.834C204.779 169.666 204.695 169.464 204.695 169.229C204.695 168.996 204.779 168.797 204.947 168.632C205.114 168.464 205.315 168.381 205.548 168.381C205.781 168.381 205.981 168.464 206.148 168.632C206.316 168.797 206.4 168.996 206.4 169.229C206.4 169.385 206.36 169.528 206.281 169.659C206.204 169.787 206.102 169.889 205.974 169.966C205.846 170.043 205.704 170.081 205.548 170.081ZM214.436 161.273V170H213.115V162.594H213.064L210.975 163.957V162.696L213.153 161.273H214.436ZM216.797 170V169.045L219.75 165.986C220.065 165.653 220.325 165.362 220.529 165.112C220.737 164.859 220.892 164.619 220.994 164.392C221.096 164.165 221.147 163.923 221.147 163.668C221.147 163.378 221.079 163.128 220.943 162.918C220.806 162.705 220.62 162.541 220.385 162.428C220.149 162.311 219.883 162.253 219.588 162.253C219.275 162.253 219.002 162.317 218.77 162.445C218.537 162.572 218.358 162.753 218.233 162.986C218.108 163.219 218.045 163.491 218.045 163.804H216.788C216.788 163.273 216.91 162.808 217.154 162.411C217.399 162.013 217.734 161.705 218.16 161.486C218.586 161.264 219.071 161.153 219.613 161.153C220.162 161.153 220.645 161.263 221.062 161.482C221.483 161.697 221.811 161.993 222.047 162.368C222.282 162.74 222.4 163.161 222.4 163.629C222.4 163.953 222.339 164.27 222.217 164.58C222.098 164.889 221.889 165.234 221.591 165.615C221.292 165.993 220.877 166.452 220.346 166.991L218.612 168.807V168.871H222.541V170H216.797ZM225.012 170.081C224.779 170.081 224.579 169.999 224.412 169.834C224.244 169.666 224.16 169.464 224.16 169.229C224.16 168.996 224.244 168.797 224.412 168.632C224.579 168.464 224.779 168.381 225.012 168.381C225.245 168.381 225.446 168.464 225.613 168.632C225.781 168.797 225.865 168.996 225.865 169.229C225.865 169.385 225.825 169.528 225.745 169.659C225.669 169.787 225.566 169.889 225.439 169.966C225.311 170.043 225.169 170.081 225.012 170.081ZM233.628 170.119C233.043 170.119 232.52 170.018 232.06 169.817C231.602 169.615 231.24 169.335 230.973 168.977C230.709 168.616 230.567 168.199 230.547 167.724H231.885C231.902 167.983 231.989 168.207 232.145 168.398C232.304 168.585 232.511 168.73 232.767 168.832C233.023 168.935 233.307 168.986 233.619 168.986C233.963 168.986 234.267 168.926 234.531 168.807C234.798 168.687 235.007 168.521 235.158 168.308C235.308 168.092 235.384 167.844 235.384 167.562C235.384 167.27 235.308 167.013 235.158 166.791C235.01 166.567 234.793 166.391 234.506 166.263C234.222 166.135 233.878 166.071 233.474 166.071H232.737V164.997H233.474C233.798 164.997 234.082 164.939 234.327 164.822C234.574 164.706 234.767 164.544 234.906 164.337C235.045 164.126 235.115 163.881 235.115 163.599C235.115 163.33 235.054 163.095 234.932 162.896C234.813 162.695 234.642 162.537 234.42 162.423C234.202 162.31 233.943 162.253 233.645 162.253C233.361 162.253 233.095 162.305 232.848 162.411C232.604 162.513 232.405 162.661 232.251 162.854C232.098 163.044 232.016 163.273 232.004 163.54H230.73C230.744 163.068 230.884 162.653 231.148 162.295C231.415 161.937 231.767 161.658 232.205 161.456C232.642 161.254 233.128 161.153 233.662 161.153C234.222 161.153 234.705 161.263 235.111 161.482C235.52 161.697 235.835 161.986 236.057 162.347C236.281 162.707 236.392 163.102 236.389 163.531C236.392 164.02 236.256 164.435 235.98 164.776C235.707 165.116 235.344 165.345 234.889 165.462V165.53C235.469 165.618 235.918 165.848 236.236 166.22C236.557 166.592 236.716 167.054 236.713 167.605C236.716 168.085 236.582 168.516 236.312 168.896C236.045 169.277 235.68 169.577 235.217 169.795C234.754 170.011 234.224 170.119 233.628 170.119ZM241.635 161.273V170H240.314V162.594H240.263L238.175 163.957V162.696L240.352 161.273H241.635Z" fill="black"/>
</g>
<defs>
<filter id="filter0_d_693_14" x="2" y="1" width="523.806" height="203" filterUnits="userSpaceOnUse" color-interpolation-filters="sRGB">
<feFlood flood-opacity="0" result="BackgroundImageFix"/>
<feColorMatrix in="SourceAlpha" type="matrix" values="0 0 0 0 0 0 0 0 0 0 0 0 0 0 0 0 0 0 127 0" result="hardAlpha"/>
<feOffset dy="4"/>
<feGaussianBlur stdDeviation="2"/>
<feComposite in2="hardAlpha" operator="out"/>
<feColorMatrix type="matrix" values="0 0 0 0 0 0 0 0 0 0 0 0 0 0 0 0 0 0 0.25 0"/>
<feBlend mode="normal" in2="BackgroundImageFix" result="effect1_dropShadow_693_14"/>
<feBlend mode="normal" in="SourceGraphic" in2="effect1_dropShadow_693_14" result="shape"/>
</filter>
<filter id="filter1_d_693_14" x="0" y="0" width="529.806" height="209" filterUnits="userSpaceOnUse" color-interpolation-filters="sRGB">
<feFlood flood-opacity="0" result="BackgroundImageFix"/>
<feColorMatrix in="SourceAlpha" type="matrix" values="0 0 0 0 0 0 0 0 0 0 0 0 0 0 0 0 0 0 127 0" result="hardAlpha"/>
<feMorphology radius="1" operator="erode" in="SourceAlpha" result="effect1_dropShadow_693_14"/>
<feOffset dx="1" dy="6"/>
<feGaussianBlur stdDeviation="4"/>
<feComposite in2="hardAlpha" operator="out"/>
<feColorMatrix type="matrix" values="0 0 0 0 0 0 0 0 0 0 0 0 0 0 0 0 0 0 0.05 0"/>
<feBlend mode="normal" in2="BackgroundImageFix" result="effect1_dropShadow_693_14"/>
<feBlend mode="normal" in="SourceGraphic" in2="effect1_dropShadow_693_14" result="shape"/>
</filter>
<filter id="filter2_d_693_14" x="411.306" y="59.6128" width="55.1774" height="88.7036" filterUnits="userSpaceOnUse" color-interpolation-filters="sRGB">
<feFlood flood-opacity="0" result="BackgroundImageFix"/>
<feColorMatrix in="SourceAlpha" type="matrix" values="0 0 0 0 0 0 0 0 0 0 0 0 0 0 0 0 0 0 127 0" result="hardAlpha"/>
<feOffset dy="4"/>
<feGaussianBlur stdDeviation="2"/>
<feComposite in2="hardAlpha" operator="out"/>
<feColorMatrix type="matrix" values="0 0 0 0 0 0 0 0 0 0 0 0 0 0 0 0 0 0 0.25 0"/>
<feBlend mode="normal" in2="BackgroundImageFix" result="effect1_dropShadow_693_14"/>
<feBlend mode="normal" in="SourceGraphic" in2="effect1_dropShadow_693_14" result="shape"/>
</filter>
<linearGradient id="paint0_linear_693_14" x1="425.426" y1="60.928" x2="474.6" y2="110.105" gradientUnits="userSpaceOnUse">
<stop stop-color="#DE2379"/>
<stop offset="1" stop-color="#E9714A"/>
</linearGradient>
<linearGradient id="paint1_linear_693_14" x1="415.564" y1="93.3998" x2="448.843" y2="126.679" gradientUnits="userSpaceOnUse">
<stop stop-color="#DE2379"/>
<stop offset="1" stop-color="#E9714A"/>
</linearGradient>
</defs>
</svg>
