<svg width="530" height="209" viewBox="0 0 530 209" fill="none" xmlns="http://www.w3.org/2000/svg">
<g filter="url(#filter0_d_691_25)">
<rect x="6" y="1" width="515.806" height="195" rx="15" fill="white"/>
</g>
<g filter="url(#filter1_d_691_25)">
<path d="M450.516 82.4678C450.694 82.4751 450.868 82.4823 451.045 82.4823C457.361 82.4823 462.48 77.3627 462.48 71.0475C462.48 64.7323 457.361 59.6128 451.045 59.6128C450.868 59.6128 450.69 59.6164 450.516 59.6273V59.6128H438.85C425.846 59.6164 415.306 69.8519 415.306 82.4823H426.335L450.516 82.4678V82.4678Z" fill="url(#paint0_linear_691_25)"/>
<path d="M451.045 93.1426C450.868 93.1426 450.69 93.1462 450.516 93.1571V93.1426H415.306L415.321 128.353C415.314 128.53 415.306 128.704 415.306 128.882C415.306 135.197 420.426 140.316 426.741 140.316C433.056 140.316 438.176 135.197 438.176 128.882C438.176 128.704 438.172 128.527 438.161 128.353H438.176V116.686C438.176 116.458 438.165 116.229 438.158 116.005L450.52 115.998C450.698 116.005 450.872 116.012 451.049 116.012C457.364 116.012 462.484 110.893 462.484 104.577C462.484 98.2621 457.364 93.1426 451.049 93.1426H451.045Z" fill="url(#paint1_linear_691_25)"/>
<path d="M446.074 137.45V128.077H449.353V137.45H446.074Z" fill="black"/>
<path d="M451.23 130.889V128.077H454.509V130.889H451.23ZM451.23 137.45V131.512H454.509V137.45H451.23Z" fill="black"/>
<path d="M459.509 134.012C459.542 134.41 459.752 134.62 460.132 134.638H461.382V137.45H460.132C458.118 137.45 456.911 136.66 456.513 135.08C456.426 134.733 456.382 134.378 456.382 134.012V128.073H459.506V129.946H461.379V132.758H459.506V134.008L459.509 134.012Z" fill="black"/>
</g>
<path d="M57.0107 60.5046V82.3228H52.3977V64.8831H52.2699L47.2734 68.0152V63.9243L52.6747 60.5046H57.0107ZM65.9995 79.3398L65.8823 80.5117C65.79 81.4492 65.6124 82.3831 65.3496 83.3135C65.0939 84.251 64.824 85.0997 64.54 85.8597C64.263 86.6196 64.0392 87.2162 63.8688 87.6495H60.9284C61.035 87.2304 61.1806 86.6445 61.3652 85.8916C61.5499 85.1459 61.7239 84.3078 61.8873 83.3774C62.0506 82.447 62.1536 81.4989 62.1962 80.533L62.2495 79.3398H65.9995ZM77.7821 82.8022C75.9498 82.7951 74.373 82.3441 73.052 81.4492C71.7381 80.5543 70.726 79.2581 70.0158 77.5607C69.3127 75.8632 68.9647 73.8213 68.9718 71.435C68.9718 69.0557 69.3233 67.028 70.0265 65.3519C70.7367 63.6757 71.7488 62.4009 73.0627 61.5273C74.3837 60.6466 75.9569 60.2063 77.7821 60.2063C79.6074 60.2063 81.177 60.6466 82.4909 61.5273C83.812 62.408 84.8276 63.6864 85.5378 65.3625C86.248 67.0316 86.5996 69.0557 86.5925 71.435C86.5925 73.8284 86.2374 75.8739 85.5272 77.5713C84.824 79.2688 83.8155 80.5649 82.5016 81.4598C81.1877 82.3547 79.6145 82.8022 77.7821 82.8022ZM77.7821 78.9776C79.0321 78.9776 80.03 78.349 80.7757 77.0919C81.5215 75.8348 81.8908 73.9492 81.8837 71.435C81.8837 69.7801 81.7132 68.4023 81.3723 67.3014C81.0385 66.2006 80.5627 65.3732 79.9448 64.8192C79.334 64.2652 78.6131 63.9882 77.7821 63.9882C76.5392 63.9882 75.5449 64.6097 74.7992 65.8526C74.0534 67.0955 73.677 68.9563 73.6699 71.435C73.6699 73.1111 73.8368 74.5103 74.1706 75.6324C74.5115 76.7475 74.9909 77.5855 75.6088 78.1466C76.2267 78.7006 76.9512 78.9776 77.7821 78.9776ZM98.4364 82.8022C96.604 82.7951 95.0273 82.3441 93.7063 81.4492C92.3924 80.5543 91.3803 79.2581 90.6701 77.5607C89.967 75.8632 89.619 73.8213 89.6261 71.435C89.6261 69.0557 89.9776 67.028 90.6808 65.3519C91.391 63.6757 92.4031 62.4009 93.717 61.5273C95.038 60.6466 96.6112 60.2063 98.4364 60.2063C100.262 60.2063 101.831 60.6466 103.145 61.5273C104.466 62.408 105.482 63.6864 106.192 65.3625C106.902 67.0316 107.254 69.0557 107.247 71.435C107.247 73.8284 106.892 75.8739 106.181 77.5713C105.478 79.2688 104.47 80.5649 103.156 81.4598C101.842 82.3547 100.269 82.8022 98.4364 82.8022ZM98.4364 78.9776C99.6864 78.9776 100.684 78.349 101.43 77.0919C102.176 75.8348 102.545 73.9492 102.538 71.435C102.538 69.7801 102.368 68.4023 102.027 67.3014C101.693 66.2006 101.217 65.3732 100.599 64.8192C99.9883 64.2652 99.2674 63.9882 98.4364 63.9882C97.1935 63.9882 96.1992 64.6097 95.4535 65.8526C94.7077 67.0955 94.3313 68.9563 94.3242 71.435C94.3242 73.1111 94.4911 74.5103 94.8249 75.6324C95.1658 76.7475 95.6452 77.5855 96.2631 78.1466C96.881 78.7006 97.6055 78.9776 98.4364 78.9776ZM119.091 82.8022C117.258 82.7951 115.682 82.3441 114.361 81.4492C113.047 80.5543 112.035 79.2581 111.324 77.5607C110.621 75.8632 110.273 73.8213 110.28 71.435C110.28 69.0557 110.632 67.028 111.335 65.3519C112.045 63.6757 113.057 62.4009 114.371 61.5273C115.692 60.6466 117.265 60.2063 119.091 60.2063C120.916 60.2063 122.486 60.6466 123.8 61.5273C125.121 62.408 126.136 63.6864 126.846 65.3625C127.557 67.0316 127.908 69.0557 127.901 71.435C127.901 73.8284 127.546 75.8739 126.836 77.5713C126.133 79.2688 125.124 80.5649 123.81 81.4598C122.496 82.3547 120.923 82.8022 119.091 82.8022ZM119.091 78.9776C120.341 78.9776 121.339 78.349 122.084 77.0919C122.83 75.8348 123.199 73.9492 123.192 71.435C123.192 69.7801 123.022 68.4023 122.681 67.3014C122.347 66.2006 121.871 65.3732 121.253 64.8192C120.643 64.2652 119.922 63.9882 119.091 63.9882C117.848 63.9882 116.854 64.6097 116.108 65.8526C115.362 67.0955 114.986 68.9563 114.979 71.435C114.979 73.1111 115.145 74.5103 115.479 75.6324C115.82 76.7475 116.3 77.5855 116.917 78.1466C117.535 78.7006 118.26 78.9776 119.091 78.9776ZM137.852 71.4628V77.5528H141.842V71.4628H137.852ZM150.032 57.2128V78.2428H154.022V57.2128H150.032ZM134.012 81.3328V84.5128H154.622V81.3328H134.012ZM134.012 76.2628V82.1728H138.002V76.2628H134.012ZM131.012 72.6628C136.022 72.6628 142.532 72.5128 148.442 71.5228L148.202 68.6728C142.382 69.4228 135.602 69.4828 130.532 69.4828L131.012 72.6628ZM144.782 73.3528V76.0828H150.902V73.3528H144.782ZM139.472 58.1728C135.392 58.1728 132.542 60.1828 132.542 63.1228C132.542 66.0928 135.392 68.0728 139.472 68.0728C143.522 68.0728 146.372 66.0928 146.372 63.1228C146.372 60.1828 143.522 58.1728 139.472 58.1728ZM139.472 61.0828C141.302 61.0828 142.592 61.7728 142.592 63.1228C142.592 64.4728 141.302 65.1628 139.472 65.1628C137.612 65.1628 136.322 64.4728 136.322 63.1228C136.322 61.7728 137.612 61.0828 139.472 61.0828Z" fill="#FF9B3F"/>
<path d="M48.575 116.7V119.175H65.825V116.7H48.575ZM48.75 122.125V124.6H65.65V122.125H48.75ZM51.525 117.675V123.725H54.85V117.675H51.525ZM59.55 117.675V123.725H62.875V117.675H59.55ZM46.75 125.8V128.4H67.675V125.8H46.75ZM49.15 129.675V132.05H61.875V133.2H49.175V137.575H52.45V135.425H65.15V129.675H49.15ZM49.175 136.65V139.075H65.75V136.65H49.175ZM85.648 116.075V131.9H88.998V116.075H85.648ZM70.948 126.875V129.525H72.973C77.923 129.525 80.873 129.4 84.123 128.8L83.773 126.15C80.623 126.75 77.798 126.875 72.973 126.875H70.948ZM70.923 117.475V120.125H78.298V122.175H70.948V128.075H74.223V124.65H81.573V117.475H70.923ZM79.423 130.725V131.125C79.423 133.55 77.123 135.975 72.148 136.6L73.348 139.15C79.073 138.35 82.248 135.175 82.248 131.125V130.725H79.423ZM80.048 130.725V131.125C80.048 135.175 83.198 138.325 88.923 139.15L90.148 136.6C85.148 135.975 82.873 133.55 82.873 131.125V130.725H80.048ZM103.732 120.275V121.1C103.732 123.725 102.132 126.375 98.3822 127.475L99.9572 130.075C104.357 128.775 106.407 125.15 106.407 121.1V120.275H103.732ZM104.357 120.275V121.1C104.357 124.9 106.432 128.3 110.857 129.475L112.357 126.925C108.657 125.925 107.057 123.475 107.057 121.1V120.275H104.357ZM99.1822 118.425V121.025H111.607V118.425H99.1822ZM103.732 116V119.525H107.057V116H103.732ZM111.007 122.2V124.9H115.407V122.2H111.007ZM114.582 116.075V131.825H117.907V116.075H114.582ZM108.457 130.525V130.875C108.457 133.125 106.007 135.85 101.157 136.55L102.357 139.15C108.132 138.325 111.282 134.7 111.282 130.875V130.525H108.457ZM109.032 130.525V130.875C109.032 134.875 112.182 138.3 117.932 139.15L119.182 136.55C114.207 135.875 111.857 133.275 111.857 130.875V130.525H109.032ZM142.116 116.05V139.2H145.466V116.05H142.116ZM144.591 124.9V127.625H148.666V124.9H144.591ZM136.041 118.45V119.025C136.041 125.3 133.166 129.55 127.091 132.7L128.941 135.225C136.641 131.35 139.291 125.4 139.291 118.45H136.041ZM128.366 118.45V121.125H137.741V118.45H128.366ZM166.214 116.075V128.525H169.564V116.075H166.214ZM154.164 129.525V138.975H169.564V129.525H166.264V131.675H157.439V129.525H154.164ZM157.439 134.225H166.264V136.325H157.439V134.225ZM156.964 117.025C153.364 117.025 150.664 119.3 150.664 122.5C150.664 125.7 153.364 127.975 156.964 127.975C160.564 127.975 163.239 125.7 163.239 122.5C163.239 119.3 160.564 117.025 156.964 117.025ZM156.964 119.775C158.714 119.775 159.989 120.8 159.989 122.5C159.989 124.225 158.714 125.225 156.964 125.225C155.189 125.225 153.914 124.225 153.914 122.5C153.914 120.8 155.189 119.775 156.964 119.775ZM195.324 122.35L180.774 122.775L181.174 125.575L195.324 124.875V122.35ZM181.549 117.35V119.975H196.049V117.35H181.549ZM179.124 128.3V130.975H200.049V128.3H179.124ZM187.899 130.425V139.2H191.224V130.425H187.899ZM194.549 117.35V119.425C194.549 121.9 194.549 124.7 193.624 128.6L196.849 128.975C197.749 124.825 197.749 121.975 197.749 119.425V117.35H194.549ZM203.922 116.925V119.55H221.172V116.925H203.922ZM204.097 123.475V126.075H220.997V123.475H204.097ZM206.872 117.95V124.825H210.197V117.95H206.872ZM214.897 117.95V124.825H218.222V117.95H214.897ZM202.097 128.175V130.8H223.022V128.175H202.097ZM210.872 125.225V129.725H214.197V125.225H210.872ZM204.622 136.175V138.825H220.672V136.175H204.622ZM204.622 132.275V137.125H207.947V132.275H204.622Z" fill="black"/>
<defs>
<filter id="filter0_d_691_25" x="0" y="0" width="529.806" height="209" filterUnits="userSpaceOnUse" color-interpolation-filters="sRGB">
<feFlood flood-opacity="0" result="BackgroundImageFix"/>
<feColorMatrix in="SourceAlpha" type="matrix" values="0 0 0 0 0 0 0 0 0 0 0 0 0 0 0 0 0 0 127 0" result="hardAlpha"/>
<feMorphology radius="1" operator="erode" in="SourceAlpha" result="effect1_dropShadow_691_25"/>
<feOffset dx="1" dy="6"/>
<feGaussianBlur stdDeviation="4"/>
<feComposite in2="hardAlpha" operator="out"/>
<feColorMatrix type="matrix" values="0 0 0 0 0 0 0 0 0 0 0 0 0 0 0 0 0 0 0.05 0"/>
<feBlend mode="normal" in2="BackgroundImageFix" result="effect1_dropShadow_691_25"/>
<feBlend mode="normal" in="SourceGraphic" in2="effect1_dropShadow_691_25" result="shape"/>
</filter>
<filter id="filter1_d_691_25" x="411.306" y="59.6128" width="55.1774" height="88.7036" filterUnits="userSpaceOnUse" color-interpolation-filters="sRGB">
<feFlood flood-opacity="0" result="BackgroundImageFix"/>
<feColorMatrix in="SourceAlpha" type="matrix" values="0 0 0 0 0 0 0 0 0 0 0 0 0 0 0 0 0 0 127 0" result="hardAlpha"/>
<feOffset dy="4"/>
<feGaussianBlur stdDeviation="2"/>
<feComposite in2="hardAlpha" operator="out"/>
<feColorMatrix type="matrix" values="0 0 0 0 0 0 0 0 0 0 0 0 0 0 0 0 0 0 0.25 0"/>
<feBlend mode="normal" in2="BackgroundImageFix" result="effect1_dropShadow_691_25"/>
<feBlend mode="normal" in="SourceGraphic" in2="effect1_dropShadow_691_25" result="shape"/>
</filter>
<linearGradient id="paint0_linear_691_25" x1="425.426" y1="60.928" x2="474.6" y2="110.105" gradientUnits="userSpaceOnUse">
<stop stop-color="#DE2379"/>
<stop offset="1" stop-color="#E9714A"/>
</linearGradient>
<linearGradient id="paint1_linear_691_25" x1="415.564" y1="93.3998" x2="448.843" y2="126.679" gradientUnits="userSpaceOnUse">
<stop stop-color="#DE2379"/>
<stop offset="1" stop-color="#E9714A"/>
</linearGradient>
</defs>
</svg>
