<svg width="530" height="209" viewBox="0 0 530 209" fill="none" xmlns="http://www.w3.org/2000/svg">
<g filter="url(#filter0_d_693_15)">
<rect x="6" y="1" width="515.806" height="195" rx="15" fill="white"/>
<rect x="7.5" y="2.5" width="512.806" height="192" rx="13.5" stroke="#CAF9FF" stroke-width="3"/>
</g>
<g filter="url(#filter1_d_693_15)">
<path d="M450.516 82.4678C450.694 82.4751 450.868 82.4823 451.045 82.4823C457.361 82.4823 462.48 77.3627 462.48 71.0475C462.48 64.7323 457.361 59.6128 451.045 59.6128C450.868 59.6128 450.69 59.6164 450.516 59.6273V59.6128H438.85C425.846 59.6164 415.306 69.8519 415.306 82.4823H426.335L450.516 82.4678V82.4678Z" fill="url(#paint0_linear_693_15)"/>
<path d="M451.045 93.1426C450.868 93.1426 450.69 93.1462 450.516 93.1571V93.1426H415.306L415.321 128.353C415.314 128.53 415.306 128.704 415.306 128.882C415.306 135.197 420.426 140.316 426.741 140.316C433.056 140.316 438.176 135.197 438.176 128.882C438.176 128.704 438.172 128.527 438.161 128.353H438.176V116.686C438.176 116.458 438.165 116.229 438.158 116.005L450.52 115.998C450.698 116.005 450.872 116.012 451.049 116.012C457.364 116.012 462.484 110.893 462.484 104.577C462.484 98.2621 457.364 93.1426 451.049 93.1426H451.045Z" fill="url(#paint1_linear_693_15)"/>
<path d="M446.074 137.45V128.077H449.353V137.45H446.074Z" fill="black"/>
<path d="M451.23 130.889V128.077H454.509V130.889H451.23ZM451.23 137.45V131.512H454.509V137.45H451.23Z" fill="black"/>
<path d="M459.509 134.012C459.542 134.41 459.752 134.62 460.132 134.638H461.382V137.45H460.132C458.118 137.45 456.911 136.66 456.513 135.08C456.426 134.733 456.382 134.378 456.382 134.012V128.073H459.506V129.946H461.379V132.758H459.506V134.008L459.509 134.012Z" fill="black"/>
</g>
<path d="M57.0107 40.1818V62H52.3977V44.5604H52.2699L47.2734 47.6925V43.6016L52.6747 40.1818H57.0107ZM70.7509 62.4794C68.9185 62.4723 67.3418 62.0213 66.0208 61.1264C64.7069 60.2315 63.6948 58.9354 62.9846 57.2379C62.2814 55.5405 61.9334 53.4986 61.9405 51.1122C61.9405 48.733 62.2921 46.7053 62.9952 45.0291C63.7054 43.353 64.7175 42.0781 66.0314 41.2045C67.3525 40.3239 68.9256 39.8835 70.7509 39.8835C72.5762 39.8835 74.1458 40.3239 75.4597 41.2045C76.7807 42.0852 77.7963 43.3636 78.5066 45.0398C79.2168 46.7088 79.5684 48.733 79.5613 51.1122C79.5613 53.5057 79.2061 55.5511 78.4959 57.2486C77.7928 58.946 76.7843 60.2422 75.4703 61.1371C74.1564 62.032 72.5833 62.4794 70.7509 62.4794ZM70.7509 58.6548C72.0009 58.6548 72.9988 58.0263 73.7445 56.7692C74.4902 55.5121 74.8596 53.6264 74.8525 51.1122C74.8525 49.4574 74.682 48.0795 74.3411 46.9787C74.0073 45.8778 73.5314 45.0504 72.9135 44.4964C72.3027 43.9425 71.5819 43.6655 70.7509 43.6655C69.508 43.6655 68.5137 44.2869 67.7679 45.5298C67.0222 46.7727 66.6458 48.6335 66.6387 51.1122C66.6387 52.7884 66.8056 54.1875 67.1394 55.3097C67.4803 56.4247 67.9597 57.2628 68.5776 57.8239C69.1955 58.3778 69.9199 58.6548 70.7509 58.6548ZM86.9467 59.017L86.8295 60.1889C86.7372 61.1264 86.5597 62.0604 86.2969 62.9908C86.0412 63.9283 85.7713 64.777 85.4872 65.5369C85.2102 66.2969 84.9865 66.8935 84.8161 67.3267H81.8757C81.9822 66.9077 82.1278 66.3217 82.3125 65.5689C82.4972 64.8232 82.6712 63.9851 82.8345 63.0547C82.9979 62.1243 83.1009 61.1761 83.1435 60.2102L83.1967 59.017H86.9467ZM98.7294 62.4794C96.897 62.4723 95.3203 62.0213 93.9993 61.1264C92.6854 60.2315 91.6733 58.9354 90.9631 57.2379C90.2599 55.5405 89.9119 53.4986 89.919 51.1122C89.919 48.733 90.2706 46.7053 90.9737 45.0291C91.6839 43.353 92.696 42.0781 94.0099 41.2045C95.331 40.3239 96.9041 39.8835 98.7294 39.8835C100.555 39.8835 102.124 40.3239 103.438 41.2045C104.759 42.0852 105.775 43.3636 106.485 45.0398C107.195 46.7088 107.547 48.733 107.54 51.1122C107.54 53.5057 107.185 55.5511 106.474 57.2486C105.771 58.946 104.763 60.2422 103.449 61.1371C102.135 62.032 100.562 62.4794 98.7294 62.4794ZM98.7294 58.6548C99.9794 58.6548 100.977 58.0263 101.723 56.7692C102.469 55.5121 102.838 53.6264 102.831 51.1122C102.831 49.4574 102.661 48.0795 102.32 46.9787C101.986 45.8778 101.51 45.0504 100.892 44.4964C100.281 43.9425 99.5604 43.6655 98.7294 43.6655C97.4865 43.6655 96.4922 44.2869 95.7464 45.5298C95.0007 46.7727 94.6243 48.6335 94.6172 51.1122C94.6172 52.7884 94.7841 54.1875 95.1179 55.3097C95.4588 56.4247 95.9382 57.2628 96.5561 57.8239C97.174 58.3778 97.8984 58.6548 98.7294 58.6548ZM119.384 62.4794C117.551 62.4723 115.975 62.0213 114.654 61.1264C113.34 60.2315 112.328 58.9354 111.617 57.2379C110.914 55.5405 110.566 53.4986 110.573 51.1122C110.573 48.733 110.925 46.7053 111.628 45.0291C112.338 43.353 113.35 42.0781 114.664 41.2045C115.985 40.3239 117.558 39.8835 119.384 39.8835C121.209 39.8835 122.779 40.3239 124.093 41.2045C125.414 42.0852 126.429 43.3636 127.139 45.0398C127.85 46.7088 128.201 48.733 128.194 51.1122C128.194 53.5057 127.839 55.5511 127.129 57.2486C126.426 58.946 125.417 60.2422 124.103 61.1371C122.789 62.032 121.216 62.4794 119.384 62.4794ZM119.384 58.6548C120.634 58.6548 121.632 58.0263 122.377 56.7692C123.123 55.5121 123.492 53.6264 123.485 51.1122C123.485 49.4574 123.315 48.0795 122.974 46.9787C122.64 45.8778 122.164 45.0504 121.546 44.4964C120.936 43.9425 120.215 43.6655 119.384 43.6655C118.141 43.6655 117.146 44.2869 116.401 45.5298C115.655 46.7727 115.279 48.6335 115.271 51.1122C115.271 52.7884 115.438 54.1875 115.772 55.3097C116.113 56.4247 116.593 57.2628 117.21 57.8239C117.828 58.3778 118.553 58.6548 119.384 58.6548ZM140.038 62.4794C138.206 62.4723 136.629 62.0213 135.308 61.1264C133.994 60.2315 132.982 58.9354 132.272 57.2379C131.569 55.5405 131.221 53.4986 131.228 51.1122C131.228 48.733 131.579 46.7053 132.282 45.0291C132.993 43.353 134.005 42.0781 135.319 41.2045C136.64 40.3239 138.213 39.8835 140.038 39.8835C141.863 39.8835 143.433 40.3239 144.747 41.2045C146.068 42.0852 147.083 43.3636 147.794 45.0398C148.504 46.7088 148.855 48.733 148.848 51.1122C148.848 53.5057 148.493 55.5511 147.783 57.2486C147.08 58.946 146.071 60.2422 144.757 61.1371C143.444 62.032 141.87 62.4794 140.038 62.4794ZM140.038 58.6548C141.288 58.6548 142.286 58.0263 143.032 56.7692C143.777 55.5121 144.147 53.6264 144.14 51.1122C144.14 49.4574 143.969 48.0795 143.628 46.9787C143.294 45.8778 142.819 45.0504 142.201 44.4964C141.59 43.9425 140.869 43.6655 140.038 43.6655C138.795 43.6655 137.801 44.2869 137.055 45.5298C136.309 46.7727 135.933 48.6335 135.926 51.1122C135.926 52.7884 136.093 54.1875 136.426 55.3097C136.767 56.4247 137.247 57.2628 137.865 57.8239C138.483 58.3778 139.207 58.6548 140.038 58.6548ZM158.799 51.14V57.23H162.789V51.14H158.799ZM170.979 36.89V57.92H174.969V36.89H170.979ZM154.959 61.01V64.19H175.569V61.01H154.959ZM154.959 55.94V61.85H158.949V55.94H154.959ZM151.959 52.34C156.969 52.34 163.479 52.19 169.389 51.2L169.149 48.35C163.329 49.1 156.549 49.16 151.479 49.16L151.959 52.34ZM165.729 53.03V55.76H171.849V53.03H165.729ZM160.419 37.85C156.339 37.85 153.489 39.86 153.489 42.8C153.489 45.77 156.339 47.75 160.419 47.75C164.469 47.75 167.319 45.77 167.319 42.8C167.319 39.86 164.469 37.85 160.419 37.85ZM160.419 40.76C162.249 40.76 163.539 41.45 163.539 42.8C163.539 44.15 162.249 44.84 160.419 44.84C158.559 44.84 157.269 44.15 157.269 42.8C157.269 41.45 158.559 40.76 160.419 40.76Z" fill="#FF9B3F"/>
<path d="M55.1339 89.8182V108H51.2898V93.467H51.1832L47.0195 96.0771V92.668L51.5206 89.8182H55.1339ZM59.4552 108V105.23L65.9271 99.2376C66.4775 98.7049 66.9392 98.2255 67.3121 97.7994C67.6908 97.3732 67.9779 96.956 68.1732 96.5476C68.3685 96.1333 68.4662 95.6864 68.4662 95.207C68.4662 94.6744 68.3448 94.2157 68.1022 93.831C67.8595 93.4403 67.5281 93.1415 67.1079 92.9343C66.6876 92.7212 66.2112 92.6147 65.6785 92.6147C65.1222 92.6147 64.6369 92.7272 64.2226 92.9521C63.8083 93.177 63.4887 93.4995 63.2638 93.9197C63.0389 94.34 62.9264 94.8401 62.9264 95.4201H59.2776C59.2776 94.2305 59.5469 93.1977 60.0855 92.3217C60.6241 91.4458 61.3787 90.7681 62.3493 90.2887C63.32 89.8093 64.4386 89.5696 65.7052 89.5696C67.0073 89.5696 68.1407 89.8004 69.1054 90.2621C70.076 90.7178 70.8306 91.3511 71.3692 92.1619C71.9078 92.9728 72.1771 93.902 72.1771 94.9496C72.1771 95.6361 72.041 96.3138 71.7687 96.9826C71.5024 97.6514 71.026 98.3942 70.3394 99.2109C69.6528 100.022 68.6852 100.995 67.4363 102.132L64.7819 104.733V104.857H72.4168V108H59.4552ZM80.3285 96.475V100.5H83.6535V96.475H80.3285ZM90.9035 87.075V100.475H94.2285V87.075H90.9035ZM75.1035 97.5C79.4285 97.525 84.7035 97.475 89.7285 96.775L89.5535 94.725C84.6785 95.2 79.2035 95.2 74.7535 95.2L75.1035 97.5ZM78.0285 101.175V103.425H90.9285V104.525H78.0785V108.425H81.3535V106.6H94.2285V101.175H78.0285ZM78.0785 107.8V110.075H94.7535V107.8H78.0785ZM86.8035 97.8V99.775H91.9285V97.8H86.8035ZM82.1035 87.4C78.6285 87.4 76.3035 88.775 76.3035 90.875C76.3035 93 78.6285 94.35 82.1035 94.35C85.5535 94.35 87.8785 93 87.8785 90.875C87.8785 88.775 85.5535 87.4 82.1035 87.4ZM82.1035 89.575C83.7535 89.575 84.7785 90.025 84.7785 90.875C84.7785 91.725 83.7535 92.15 82.1035 92.15C80.4285 92.15 79.4035 91.725 79.4035 90.875C79.4035 90.025 80.4285 89.575 82.1035 89.575ZM108.713 91.275V92.1C108.713 94.725 107.113 97.375 103.363 98.475L104.938 101.075C109.338 99.775 111.388 96.15 111.388 92.1V91.275H108.713ZM109.338 91.275V92.1C109.338 95.9 111.413 99.3 115.838 100.475L117.338 97.925C113.638 96.925 112.038 94.475 112.038 92.1V91.275H109.338ZM104.163 89.425V92.025H116.588V89.425H104.163ZM108.713 87V90.525H112.038V87H108.713ZM115.988 93.2V95.9H120.388V93.2H115.988ZM119.563 87.075V102.825H122.888V87.075H119.563ZM113.438 101.525V101.875C113.438 104.125 110.988 106.85 106.138 107.55L107.338 110.15C113.113 109.325 116.263 105.7 116.263 101.875V101.525H113.438ZM114.013 101.525V101.875C114.013 105.875 117.163 109.3 122.913 110.15L124.163 107.55C119.188 106.875 116.838 104.275 116.838 101.875V101.525H114.013ZM140.872 89.65V90.325C140.872 92.7 138.422 95.3 133.322 95.925L134.547 98.525C140.422 97.725 143.747 94.4 143.747 90.325V89.65H140.872ZM141.822 89.65V90.325C141.822 94.4 145.147 97.725 151.047 98.525L152.247 95.925C147.147 95.3 144.697 92.7 144.697 90.325V89.65H141.822ZM141.047 101.75V110.25H144.347V101.75H141.047ZM132.322 99.85V102.5H153.247V99.85H132.322ZM134.172 88.25V90.875H151.347V88.25H134.172ZM155.295 98.5V101.15H176.245V98.5H155.295ZM164.37 100.175V105.05H167.72V100.175H164.37ZM157.87 88.05V96.65H173.595V88.05H157.87ZM170.32 90.65V94.05H161.12V90.65H170.32ZM157.72 107.175V109.825H173.945V107.175H157.72ZM157.72 103.1V108.05H161.02V103.1H157.72ZM192.463 89.8182V108H188.619V93.467H188.512L184.349 96.0771V92.668L188.85 89.8182H192.463ZM196.986 88.975V100.15H208.011V88.975H196.986ZM204.736 91.6V97.525H200.261V91.6H204.736ZM211.211 87.075V103.95H214.536V87.075H211.211ZM213.586 93.75V96.475H217.611V93.75H213.586ZM199.611 107.175V109.825H215.361V107.175H199.611ZM199.611 102.3V108.5H202.936V102.3H199.611ZM225.334 98.95V104.025H228.659V98.95H225.334ZM235.484 87.075V104.6H238.809V87.075H235.484ZM222.134 107.175V109.825H239.309V107.175H222.134ZM222.134 102.95V107.875H225.459V102.95H222.134ZM219.634 99.95C223.809 99.95 229.234 99.825 234.159 99L233.959 96.625C229.109 97.25 223.459 97.3 219.234 97.3L219.634 99.95ZM231.109 100.525V102.8H236.209V100.525H231.109ZM226.684 87.875C223.284 87.875 220.909 89.55 220.909 92C220.909 94.475 223.284 96.125 226.684 96.125C230.059 96.125 232.434 94.475 232.434 92C232.434 89.55 230.059 87.875 226.684 87.875ZM226.684 90.3C228.209 90.3 229.284 90.875 229.284 92C229.284 93.125 228.209 93.7 226.684 93.7C225.134 93.7 224.059 93.125 224.059 92C224.059 90.875 225.134 90.3 226.684 90.3ZM262.993 87.05V99.55H266.318V87.05H262.993ZM264.993 92V94.7H269.393V92H264.993ZM251.018 100.475V102.875H263.043V104.1H251.068V108.45H254.368V106.35H266.318V100.475H251.018ZM251.068 107.625V110.075H266.993V107.625H251.068ZM248.093 88.775V91.275H261.718V88.775H248.093ZM254.918 91.825C251.468 91.825 249.218 93.3 249.218 95.625C249.218 97.95 251.468 99.375 254.918 99.375C258.343 99.375 260.593 97.95 260.593 95.625C260.593 93.3 258.343 91.825 254.918 91.825ZM254.918 94.15C256.468 94.15 257.418 94.65 257.418 95.625C257.418 96.55 256.468 97.05 254.918 97.05C253.368 97.05 252.418 96.55 252.418 95.625C252.418 94.65 253.368 94.15 254.918 94.15ZM253.243 86.9V90.55H256.568V86.9H253.243ZM286.991 87.1V103.725H290.341V87.1H286.991ZM274.916 107.175V109.825H290.916V107.175H274.916ZM274.916 102.05V108.25H278.241V102.05H274.916ZM277.741 88.55C274.191 88.55 271.441 91 271.441 94.425C271.441 97.825 274.191 100.3 277.741 100.3C281.291 100.3 284.016 97.825 284.016 94.425C284.016 91 281.291 88.55 277.741 88.55ZM277.741 91.425C279.441 91.425 280.766 92.525 280.766 94.425C280.766 96.3 279.441 97.4 277.741 97.4C276.016 97.4 274.691 96.3 274.691 94.425C274.691 92.525 276.016 91.425 277.741 91.425Z" fill="black"/>
<path d="M52.696 147.824V150.176H53.704V147.824H52.696ZM52.696 144.008V144.248C52.696 145.712 51.592 146.924 49.984 147.404L50.44 148.184C52.264 147.608 53.5 146.144 53.5 144.248V144.008H52.696ZM52.888 144.008V144.248C52.888 146.084 54.148 147.524 55.972 148.064L56.428 147.296C54.832 146.828 53.692 145.652 53.692 144.248V144.008H52.888ZM50.236 143.504V144.308H56.2V143.504H50.236ZM52.696 142.16V143.852H53.704V142.16H52.696ZM57.436 142.076V152.948H58.432V142.076H57.436ZM49.792 150.716C51.724 150.704 54.376 150.692 56.812 150.236L56.728 149.504C54.364 149.864 51.628 149.876 49.648 149.876L49.792 150.716ZM60.6391 150.704V151.532H70.4671V150.704H60.6391ZM65.0071 148.076V150.98H65.9911V148.076H65.0071ZM64.9831 142.808V143.648C64.9831 145.436 62.9311 147.032 61.0231 147.38L61.4431 148.208C63.6271 147.752 65.8471 145.964 65.8471 143.648V142.808H64.9831ZM65.1631 142.808V143.648C65.1631 145.964 67.3831 147.752 69.5671 148.208L69.9991 147.38C68.0911 147.032 66.0271 145.448 66.0271 143.648V142.808H65.1631ZM79.1979 143.156V143.612C79.1979 145.04 77.3379 146.288 75.4299 146.564L75.8139 147.356C77.9979 146.984 80.0619 145.556 80.0619 143.612V143.156H79.1979ZM79.4499 143.156V143.612C79.4499 145.556 81.5019 146.984 83.6979 147.356L84.0699 146.564C82.1739 146.288 80.3019 145.04 80.3019 143.612V143.156H79.4499ZM79.2339 148.796V152.936H80.2179V148.796H79.2339ZM74.8539 148.268V149.084H84.6579V148.268H74.8539ZM75.7659 142.76V143.564H83.7099V142.76H75.7659ZM85.881 147.632V148.448H95.709V147.632H85.881ZM90.369 148.136V150.632H91.365V148.136H90.369ZM87.141 142.592V146.408H94.437V142.592H87.141ZM93.453 143.396V145.604H88.113V143.396H93.453ZM87.129 151.88V152.696H94.617V151.88H87.129ZM87.129 149.588V152.168H88.113V149.588H87.129ZM98.18 142.652V143.468H105.164V142.652H98.18ZM96.932 146.648V147.464H106.76V146.648H96.932ZM104.516 142.652V143.456C104.516 144.356 104.516 145.4 104.156 146.888L105.128 146.936C105.488 145.436 105.488 144.38 105.488 143.456V142.652H104.516ZM98.132 148.94V152.792H105.524V148.94H98.132ZM104.552 149.732V151.988H99.104V149.732H104.552ZM110.539 142.772C109.099 142.772 108.067 143.816 108.067 145.34C108.067 146.84 109.099 147.884 110.539 147.884C111.955 147.884 112.999 146.84 112.999 145.34C112.999 143.816 111.955 142.772 110.539 142.772ZM110.539 143.612C111.427 143.612 112.099 144.332 112.099 145.34C112.099 146.336 111.427 147.056 110.539 147.056C109.639 147.056 108.979 146.336 108.979 145.34C108.979 144.332 109.639 143.612 110.539 143.612ZM116.155 142.1V148.544H117.103V142.1H116.155ZM114.403 144.872V145.7H116.455V144.872H114.403ZM113.839 142.292V148.484H114.787V142.292H113.839ZM109.831 149.144V149.96H116.119V152.936H117.103V149.144H109.831ZM125.464 152.119C124.879 152.119 124.356 152.018 123.896 151.817C123.438 151.615 123.076 151.335 122.809 150.977C122.545 150.616 122.403 150.199 122.383 149.724H123.721C123.738 149.983 123.825 150.207 123.981 150.398C124.14 150.585 124.347 150.73 124.603 150.832C124.859 150.935 125.143 150.986 125.455 150.986C125.799 150.986 126.103 150.926 126.367 150.807C126.634 150.687 126.843 150.521 126.994 150.308C127.144 150.092 127.219 149.844 127.219 149.562C127.219 149.27 127.144 149.013 126.994 148.791C126.846 148.567 126.629 148.391 126.342 148.263C126.058 148.135 125.714 148.071 125.31 148.071H124.573V146.997H125.31C125.634 146.997 125.918 146.939 126.163 146.822C126.41 146.706 126.603 146.544 126.742 146.337C126.881 146.126 126.951 145.881 126.951 145.599C126.951 145.33 126.89 145.095 126.768 144.896C126.648 144.695 126.478 144.537 126.256 144.423C126.038 144.31 125.779 144.253 125.481 144.253C125.197 144.253 124.931 144.305 124.684 144.411C124.44 144.513 124.241 144.661 124.087 144.854C123.934 145.044 123.852 145.273 123.84 145.54H122.566C122.58 145.068 122.719 144.653 122.984 144.295C123.251 143.937 123.603 143.658 124.04 143.456C124.478 143.254 124.964 143.153 125.498 143.153C126.058 143.153 126.54 143.263 126.947 143.482C127.356 143.697 127.671 143.986 127.893 144.347C128.117 144.707 128.228 145.102 128.225 145.531C128.228 146.02 128.092 146.435 127.816 146.776C127.543 147.116 127.18 147.345 126.725 147.462V147.53C127.305 147.618 127.754 147.848 128.072 148.22C128.393 148.592 128.552 149.054 128.549 149.605C128.552 150.085 128.418 150.516 128.148 150.896C127.881 151.277 127.516 151.577 127.053 151.795C126.59 152.011 126.06 152.119 125.464 152.119ZM133.198 152.145C132.525 152.142 131.95 151.964 131.472 151.612C130.995 151.26 130.63 150.747 130.377 150.074C130.124 149.401 129.998 148.589 129.998 147.641C129.998 146.695 130.124 145.886 130.377 145.216C130.633 144.545 130.999 144.034 131.477 143.682C131.957 143.33 132.531 143.153 133.198 143.153C133.866 143.153 134.438 143.331 134.915 143.686C135.393 144.038 135.758 144.55 136.011 145.22C136.266 145.888 136.394 146.695 136.394 147.641C136.394 148.592 136.268 149.405 136.015 150.078C135.762 150.749 135.397 151.261 134.92 151.616C134.442 151.969 133.869 152.145 133.198 152.145ZM133.198 151.007C133.789 151.007 134.251 150.719 134.583 150.142C134.918 149.565 135.086 148.732 135.086 147.641C135.086 146.916 135.009 146.304 134.856 145.804C134.705 145.301 134.488 144.92 134.204 144.662C133.923 144.401 133.587 144.27 133.198 144.27C132.61 144.27 132.148 144.56 131.813 145.139C131.478 145.719 131.309 146.553 131.306 147.641C131.306 148.368 131.381 148.983 131.532 149.486C131.685 149.986 131.903 150.365 132.184 150.624C132.465 150.879 132.803 151.007 133.198 151.007ZM139.264 150.807L139.2 151.271C139.158 151.612 139.085 151.967 138.983 152.337C138.884 152.709 138.78 153.054 138.672 153.372C138.567 153.69 138.48 153.943 138.412 154.131H137.509C137.545 153.955 137.597 153.716 137.662 153.415C137.727 153.116 137.791 152.783 137.854 152.413C137.916 152.044 137.963 151.668 137.994 151.284L138.037 150.807H139.264ZM143.768 152.145C143.095 152.142 142.52 151.964 142.043 151.612C141.565 151.26 141.2 150.747 140.947 150.074C140.695 149.401 140.568 148.589 140.568 147.641C140.568 146.695 140.695 145.886 140.947 145.216C141.203 144.545 141.57 144.034 142.047 143.682C142.527 143.33 143.101 143.153 143.768 143.153C144.436 143.153 145.009 143.331 145.486 143.686C145.963 144.038 146.328 144.55 146.581 145.22C146.837 145.888 146.964 146.695 146.964 147.641C146.964 148.592 146.838 149.405 146.585 150.078C146.332 150.749 145.967 151.261 145.49 151.616C145.013 151.969 144.439 152.145 143.768 152.145ZM143.768 151.007C144.359 151.007 144.821 150.719 145.153 150.142C145.489 149.565 145.656 148.732 145.656 147.641C145.656 146.916 145.58 146.304 145.426 145.804C145.276 145.301 145.058 144.92 144.774 144.662C144.493 144.401 144.158 144.27 143.768 144.27C143.18 144.27 142.719 144.56 142.384 145.139C142.048 145.719 141.879 146.553 141.876 147.641C141.876 148.368 141.952 148.983 142.102 149.486C142.256 149.986 142.473 150.365 142.754 150.624C143.036 150.879 143.374 151.007 143.768 151.007ZM151.515 152.145C150.841 152.142 150.266 151.964 149.789 151.612C149.311 151.26 148.946 150.747 148.694 150.074C148.441 149.401 148.314 148.589 148.314 147.641C148.314 146.695 148.441 145.886 148.694 145.216C148.949 144.545 149.316 144.034 149.793 143.682C150.273 143.33 150.847 143.153 151.515 143.153C152.182 143.153 152.755 143.331 153.232 143.686C153.709 144.038 154.074 144.55 154.327 145.22C154.583 145.888 154.711 146.695 154.711 147.641C154.711 148.592 154.584 149.405 154.331 150.078C154.078 150.749 153.713 151.261 153.236 151.616C152.759 151.969 152.185 152.145 151.515 152.145ZM151.515 151.007C152.105 151.007 152.567 150.719 152.9 150.142C153.235 149.565 153.402 148.732 153.402 147.641C153.402 146.916 153.326 146.304 153.172 145.804C153.022 145.301 152.804 144.92 152.52 144.662C152.239 144.401 151.904 144.27 151.515 144.27C150.926 144.27 150.465 144.56 150.13 145.139C149.794 145.719 149.625 146.553 149.623 147.641C149.623 148.368 149.698 148.983 149.848 149.486C150.002 149.986 150.219 150.365 150.5 150.624C150.782 150.879 151.12 151.007 151.515 151.007ZM159.261 152.145C158.587 152.142 158.012 151.964 157.535 151.612C157.058 151.26 156.692 150.747 156.44 150.074C156.187 149.401 156.06 148.589 156.06 147.641C156.06 146.695 156.187 145.886 156.44 145.216C156.695 144.545 157.062 144.034 157.539 143.682C158.019 143.33 158.593 143.153 159.261 143.153C159.928 143.153 160.501 143.331 160.978 143.686C161.455 144.038 161.82 144.55 162.073 145.22C162.329 145.888 162.457 146.695 162.457 147.641C162.457 148.592 162.33 149.405 162.077 150.078C161.825 150.749 161.46 151.261 160.982 151.616C160.505 151.969 159.931 152.145 159.261 152.145ZM159.261 151.007C159.852 151.007 160.313 150.719 160.646 150.142C160.981 149.565 161.148 148.732 161.148 147.641C161.148 146.916 161.072 146.304 160.918 145.804C160.768 145.301 160.55 144.92 160.266 144.662C159.985 144.401 159.65 144.27 159.261 144.27C158.673 144.27 158.211 144.56 157.876 145.139C157.54 145.719 157.371 146.553 157.369 147.641C157.369 148.368 157.444 148.983 157.594 149.486C157.748 149.986 157.965 150.365 158.246 150.624C158.528 150.879 158.866 151.007 159.261 151.007ZM166.801 147.548V149.96H167.797V147.548H166.801ZM171.613 142.088V150.344H172.609V142.088H171.613ZM165.205 151.88V152.696H172.873V151.88H165.205ZM165.205 149.54V152.108H166.201V149.54H165.205ZM163.801 147.92C165.769 147.92 168.397 147.884 170.737 147.512L170.665 146.78C168.361 147.08 165.673 147.104 163.669 147.104L163.801 147.92ZM169.405 148.496V149.228H171.865V148.496H169.405ZM167.197 142.532C165.601 142.532 164.521 143.276 164.521 144.416C164.521 145.568 165.601 146.312 167.197 146.312C168.781 146.312 169.861 145.568 169.861 144.416C169.861 143.276 168.781 142.532 167.197 142.532ZM167.197 143.276C168.205 143.276 168.913 143.72 168.913 144.416C168.913 145.112 168.205 145.556 167.197 145.556C166.177 145.556 165.469 145.112 165.469 144.416C165.469 143.72 166.177 143.276 167.197 143.276Z" fill="black"/>
<path d="M52.252 161.024V162.968C52.252 164.948 51.016 167.036 49.444 167.828L50.056 168.62C51.772 167.708 53.068 165.368 53.068 162.968V161.024H52.252ZM52.432 161.024V162.968C52.432 165.296 53.692 167.516 55.372 168.416L55.984 167.624C54.448 166.856 53.236 164.876 53.236 162.968V161.024H52.432ZM56.932 160.088V170.936H57.94V160.088H56.932ZM57.7 164.48V165.32H59.716V164.48H57.7ZM63.0511 163.76V165.812H64.0351V163.76H63.0511ZM67.0351 163.76V165.812H68.0191V163.76H67.0351ZM60.6271 165.452V166.256H70.4311V165.452H60.6271ZM65.5231 167.072C63.1951 167.072 61.8031 167.756 61.8031 168.992C61.8031 170.228 63.1951 170.924 65.5231 170.924C67.8511 170.924 69.2431 170.228 69.2431 168.992C69.2431 167.756 67.8511 167.072 65.5231 167.072ZM65.5231 167.84C67.2271 167.84 68.2351 168.26 68.2351 168.992C68.2351 169.736 67.2271 170.144 65.5231 170.144C63.8311 170.144 62.8111 169.736 62.8111 168.992C62.8111 168.26 63.8311 167.84 65.5231 167.84ZM65.5351 160.28C63.1711 160.28 61.7191 161.036 61.7191 162.308C61.7191 163.568 63.1711 164.312 65.5351 164.312C67.8871 164.312 69.3511 163.568 69.3511 162.308C69.3511 161.036 67.8871 160.28 65.5351 160.28ZM65.5351 161.06C67.2631 161.06 68.3311 161.516 68.3311 162.308C68.3311 163.088 67.2631 163.544 65.5351 163.544C63.8071 163.544 62.7391 163.088 62.7391 162.308C62.7391 161.516 63.8071 161.06 65.5351 161.06ZM79.5741 160.088V170.936H80.5701V160.088H79.5741ZM76.3941 161.252V161.42C76.3941 164.3 74.9421 166.604 71.8101 168.116L72.3381 168.92C75.9621 167.144 77.3781 164.396 77.3781 161.252H76.3941ZM72.3021 161.252V162.068H76.8261V161.252H72.3021ZM90.1332 160.088V168.02H91.1292V160.088H90.1332ZM90.8172 163.376V164.204H92.7372V163.376H90.8172ZM87.1692 160.928V161.36C87.1692 163.448 85.4532 165.128 82.7172 165.968L83.1492 166.784C86.2572 165.788 88.2252 163.736 88.2252 160.928H87.1692ZM83.1612 160.928V161.744H87.6732V160.928H83.1612ZM84.3612 169.88V170.696H91.6092V169.88H84.3612ZM84.3612 167.216V170.204H85.3572V167.216H84.3612ZM97.1715 170V169.045L100.125 165.986C100.44 165.653 100.7 165.362 100.904 165.112C101.112 164.859 101.267 164.619 101.369 164.392C101.471 164.165 101.522 163.923 101.522 163.668C101.522 163.378 101.454 163.128 101.318 162.918C101.181 162.705 100.995 162.541 100.76 162.428C100.524 162.311 100.258 162.253 99.9627 162.253C99.6502 162.253 99.3775 162.317 99.1445 162.445C98.9116 162.572 98.7326 162.753 98.6076 162.986C98.4826 163.219 98.4201 163.491 98.4201 163.804H97.163C97.163 163.273 97.2852 162.808 97.5295 162.411C97.7738 162.013 98.109 161.705 98.5352 161.486C98.9613 161.264 99.4457 161.153 99.9883 161.153C100.537 161.153 101.02 161.263 101.437 161.482C101.858 161.697 102.186 161.993 102.422 162.368C102.657 162.74 102.775 163.161 102.775 163.629C102.775 163.953 102.714 164.27 102.592 164.58C102.473 164.889 102.264 165.234 101.966 165.615C101.667 165.993 101.252 166.452 100.721 166.991L98.9869 168.807V168.871H102.916V170H97.1715ZM107.569 170.145C106.896 170.142 106.321 169.964 105.843 169.612C105.366 169.26 105.001 168.747 104.748 168.074C104.495 167.401 104.369 166.589 104.369 165.641C104.369 164.695 104.495 163.886 104.748 163.216C105.004 162.545 105.37 162.034 105.848 161.682C106.328 161.33 106.902 161.153 107.569 161.153C108.237 161.153 108.809 161.331 109.287 161.686C109.764 162.038 110.129 162.55 110.382 163.22C110.637 163.888 110.765 164.695 110.765 165.641C110.765 166.592 110.639 167.405 110.386 168.078C110.133 168.749 109.768 169.261 109.291 169.616C108.814 169.969 108.24 170.145 107.569 170.145ZM107.569 169.007C108.16 169.007 108.622 168.719 108.954 168.142C109.289 167.565 109.457 166.732 109.457 165.641C109.457 164.916 109.38 164.304 109.227 163.804C109.076 163.301 108.859 162.92 108.575 162.662C108.294 162.401 107.958 162.27 107.569 162.27C106.981 162.27 106.52 162.56 106.184 163.139C105.849 163.719 105.68 164.553 105.677 165.641C105.677 166.368 105.752 166.983 105.903 167.486C106.056 167.986 106.274 168.365 106.555 168.624C106.836 168.879 107.174 169.007 107.569 169.007ZM112.277 170V169.045L115.23 165.986C115.545 165.653 115.805 165.362 116.01 165.112C116.217 164.859 116.372 164.619 116.474 164.392C116.577 164.165 116.628 163.923 116.628 163.668C116.628 163.378 116.56 163.128 116.423 162.918C116.287 162.705 116.101 162.541 115.865 162.428C115.629 162.311 115.364 162.253 115.068 162.253C114.756 162.253 114.483 162.317 114.25 162.445C114.017 162.572 113.838 162.753 113.713 162.986C113.588 163.219 113.526 163.491 113.526 163.804H112.268C112.268 163.273 112.391 162.808 112.635 162.411C112.879 162.013 113.214 161.705 113.641 161.486C114.067 161.264 114.551 161.153 115.094 161.153C115.642 161.153 116.125 161.263 116.543 161.482C116.963 161.697 117.291 161.993 117.527 162.368C117.763 162.74 117.881 163.161 117.881 163.629C117.881 163.953 117.82 164.27 117.697 164.58C117.578 164.889 117.369 165.234 117.071 165.615C116.773 165.993 116.358 166.452 115.827 166.991L114.092 168.807V168.871H118.021V170H112.277ZM119.636 170V169.045L122.589 165.986C122.905 165.653 123.165 165.362 123.369 165.112C123.577 164.859 123.732 164.619 123.834 164.392C123.936 164.165 123.987 163.923 123.987 163.668C123.987 163.378 123.919 163.128 123.783 162.918C123.646 162.705 123.46 162.541 123.224 162.428C122.989 162.311 122.723 162.253 122.428 162.253C122.115 162.253 121.842 162.317 121.609 162.445C121.376 162.572 121.197 162.753 121.072 162.986C120.947 163.219 120.885 163.491 120.885 163.804H119.628C119.628 163.273 119.75 162.808 119.994 162.411C120.239 162.013 120.574 161.705 121 161.486C121.426 161.264 121.911 161.153 122.453 161.153C123.001 161.153 123.484 161.263 123.902 161.482C124.322 161.697 124.651 161.993 124.886 162.368C125.122 162.74 125.24 163.161 125.24 163.629C125.24 163.953 125.179 164.27 125.057 164.58C124.938 164.889 124.729 165.234 124.43 165.615C124.132 165.993 123.717 166.452 123.186 166.991L121.452 168.807V168.871H125.381V170H119.636ZM127.852 170.081C127.619 170.081 127.419 169.999 127.251 169.834C127.084 169.666 127 169.464 127 169.229C127 168.996 127.084 168.797 127.251 168.632C127.419 168.464 127.619 168.381 127.852 168.381C128.085 168.381 128.286 168.464 128.453 168.632C128.621 168.797 128.705 168.996 128.705 169.229C128.705 169.385 128.665 169.528 128.585 169.659C128.509 169.787 128.406 169.889 128.278 169.966C128.151 170.043 128.009 170.081 127.852 170.081ZM136.74 161.273V170H135.419V162.594H135.368L133.28 163.957V162.696L135.458 161.273H136.74ZM139.101 170V169.045L142.054 165.986C142.37 165.653 142.63 165.362 142.834 165.112C143.042 164.859 143.196 164.619 143.299 164.392C143.401 164.165 143.452 163.923 143.452 163.668C143.452 163.378 143.384 163.128 143.248 162.918C143.111 162.705 142.925 162.541 142.689 162.428C142.453 162.311 142.188 162.253 141.892 162.253C141.58 162.253 141.307 162.317 141.074 162.445C140.841 162.572 140.662 162.753 140.537 162.986C140.412 163.219 140.35 163.491 140.35 163.804H139.093C139.093 163.273 139.215 162.808 139.459 162.411C139.703 162.013 140.039 161.705 140.465 161.486C140.891 161.264 141.375 161.153 141.918 161.153C142.466 161.153 142.949 161.263 143.367 161.482C143.787 161.697 144.115 161.993 144.351 162.368C144.587 162.74 144.705 163.161 144.705 163.629C144.705 163.953 144.644 164.27 144.522 164.58C144.402 164.889 144.194 165.234 143.895 165.615C143.597 165.993 143.182 166.452 142.651 166.991L140.917 168.807V168.871H144.846V170H139.101ZM147.317 170.081C147.084 170.081 146.884 169.999 146.716 169.834C146.549 169.666 146.465 169.464 146.465 169.229C146.465 168.996 146.549 168.797 146.716 168.632C146.884 168.464 147.084 168.381 147.317 168.381C147.55 168.381 147.75 168.464 147.918 168.632C148.086 168.797 148.169 168.996 148.169 169.229C148.169 169.385 148.13 169.528 148.05 169.659C147.973 169.787 147.871 169.889 147.743 169.966C147.615 170.043 147.473 170.081 147.317 170.081ZM152.581 170.145C151.908 170.142 151.332 169.964 150.855 169.612C150.378 169.26 150.013 168.747 149.76 168.074C149.507 167.401 149.381 166.589 149.381 165.641C149.381 164.695 149.507 163.886 149.76 163.216C150.016 162.545 150.382 162.034 150.859 161.682C151.339 161.33 151.913 161.153 152.581 161.153C153.249 161.153 153.821 161.331 154.298 161.686C154.776 162.038 155.141 162.55 155.393 163.22C155.649 163.888 155.777 164.695 155.777 165.641C155.777 166.592 155.651 167.405 155.398 168.078C155.145 168.749 154.78 169.261 154.303 169.616C153.825 169.969 153.251 170.145 152.581 170.145ZM152.581 169.007C153.172 169.007 153.634 168.719 153.966 168.142C154.301 167.565 154.469 166.732 154.469 165.641C154.469 164.916 154.392 164.304 154.239 163.804C154.088 163.301 153.871 162.92 153.587 162.662C153.305 162.401 152.97 162.27 152.581 162.27C151.993 162.27 151.531 162.56 151.196 163.139C150.861 163.719 150.692 164.553 150.689 165.641C150.689 166.368 150.764 166.983 150.915 167.486C151.068 167.986 151.286 168.365 151.567 168.624C151.848 168.879 152.186 169.007 152.581 169.007ZM160.6 161.273V170H159.279V162.594H159.228L157.14 163.957V162.696L159.317 161.273H160.6ZM170.01 165.082V166.19H166.141V165.082H170.01ZM174.867 170V169.045L177.82 165.986C178.135 165.653 178.395 165.362 178.6 165.112C178.807 164.859 178.962 164.619 179.064 164.392C179.167 164.165 179.218 163.923 179.218 163.668C179.218 163.378 179.15 163.128 179.013 162.918C178.877 162.705 178.691 162.541 178.455 162.428C178.219 162.311 177.953 162.253 177.658 162.253C177.346 162.253 177.073 162.317 176.84 162.445C176.607 162.572 176.428 162.753 176.303 162.986C176.178 163.219 176.115 163.491 176.115 163.804H174.858C174.858 163.273 174.98 162.808 175.225 162.411C175.469 162.013 175.804 161.705 176.23 161.486C176.657 161.264 177.141 161.153 177.684 161.153C178.232 161.153 178.715 161.263 179.132 161.482C179.553 161.697 179.881 161.993 180.117 162.368C180.353 162.74 180.471 163.161 180.471 163.629C180.471 163.953 180.409 164.27 180.287 164.58C180.168 164.889 179.959 165.234 179.661 165.615C179.363 165.993 178.948 166.452 178.417 166.991L176.682 168.807V168.871H180.611V170H174.867ZM185.265 170.145C184.591 170.142 184.016 169.964 183.539 169.612C183.061 169.26 182.696 168.747 182.444 168.074C182.191 167.401 182.064 166.589 182.064 165.641C182.064 164.695 182.191 163.886 182.444 163.216C182.699 162.545 183.066 162.034 183.543 161.682C184.023 161.33 184.597 161.153 185.265 161.153C185.932 161.153 186.505 161.331 186.982 161.686C187.459 162.038 187.824 162.55 188.077 163.22C188.333 163.888 188.461 164.695 188.461 165.641C188.461 166.592 188.334 167.405 188.081 168.078C187.828 168.749 187.463 169.261 186.986 169.616C186.509 169.969 185.935 170.145 185.265 170.145ZM185.265 169.007C185.855 169.007 186.317 168.719 186.65 168.142C186.985 167.565 187.152 166.732 187.152 165.641C187.152 164.916 187.076 164.304 186.922 163.804C186.772 163.301 186.554 162.92 186.27 162.662C185.989 162.401 185.654 162.27 185.265 162.27C184.676 162.27 184.215 162.56 183.88 163.139C183.544 163.719 183.375 164.553 183.373 165.641C183.373 166.368 183.448 166.983 183.598 167.486C183.752 167.986 183.969 168.365 184.25 168.624C184.532 168.879 184.87 169.007 185.265 169.007ZM189.972 170V169.045L192.925 165.986C193.241 165.653 193.501 165.362 193.705 165.112C193.913 164.859 194.067 164.619 194.17 164.392C194.272 164.165 194.323 163.923 194.323 163.668C194.323 163.378 194.255 163.128 194.119 162.918C193.982 162.705 193.796 162.541 193.56 162.428C193.325 162.311 193.059 162.253 192.763 162.253C192.451 162.253 192.178 162.317 191.945 162.445C191.712 162.572 191.533 162.753 191.408 162.986C191.283 163.219 191.221 163.491 191.221 163.804H189.964C189.964 163.273 190.086 162.808 190.33 162.411C190.575 162.013 190.91 161.705 191.336 161.486C191.762 161.264 192.246 161.153 192.789 161.153C193.337 161.153 193.82 161.263 194.238 161.482C194.658 161.697 194.987 161.993 195.222 162.368C195.458 162.74 195.576 163.161 195.576 163.629C195.576 163.953 195.515 164.27 195.393 164.58C195.273 164.889 195.065 165.234 194.766 165.615C194.468 165.993 194.053 166.452 193.522 166.991L191.788 168.807V168.871H195.717V170H189.972ZM197.332 170V169.045L200.285 165.986C200.6 165.653 200.86 165.362 201.065 165.112C201.272 164.859 201.427 164.619 201.529 164.392C201.631 164.165 201.683 163.923 201.683 163.668C201.683 163.378 201.614 163.128 201.478 162.918C201.342 162.705 201.156 162.541 200.92 162.428C200.684 162.311 200.418 162.253 200.123 162.253C199.81 162.253 199.538 162.317 199.305 162.445C199.072 162.572 198.893 162.753 198.768 162.986C198.643 163.219 198.58 163.491 198.58 163.804H197.323C197.323 163.273 197.445 162.808 197.69 162.411C197.934 162.013 198.269 161.705 198.695 161.486C199.121 161.264 199.606 161.153 200.148 161.153C200.697 161.153 201.18 161.263 201.597 161.482C202.018 161.697 202.346 161.993 202.582 162.368C202.817 162.74 202.935 163.161 202.935 163.629C202.935 163.953 202.874 164.27 202.752 164.58C202.633 164.889 202.424 165.234 202.126 165.615C201.827 165.993 201.413 166.452 200.881 166.991L199.147 168.807V168.871H203.076V170H197.332ZM205.548 170.081C205.315 170.081 205.114 169.999 204.947 169.834C204.779 169.666 204.695 169.464 204.695 169.229C204.695 168.996 204.779 168.797 204.947 168.632C205.114 168.464 205.315 168.381 205.548 168.381C205.781 168.381 205.981 168.464 206.148 168.632C206.316 168.797 206.4 168.996 206.4 169.229C206.4 169.385 206.36 169.528 206.281 169.659C206.204 169.787 206.102 169.889 205.974 169.966C205.846 170.043 205.704 170.081 205.548 170.081ZM214.436 161.273V170H213.115V162.594H213.064L210.975 163.957V162.696L213.153 161.273H214.436ZM216.797 170V169.045L219.75 165.986C220.065 165.653 220.325 165.362 220.529 165.112C220.737 164.859 220.892 164.619 220.994 164.392C221.096 164.165 221.147 163.923 221.147 163.668C221.147 163.378 221.079 163.128 220.943 162.918C220.806 162.705 220.62 162.541 220.385 162.428C220.149 162.311 219.883 162.253 219.588 162.253C219.275 162.253 219.002 162.317 218.77 162.445C218.537 162.572 218.358 162.753 218.233 162.986C218.108 163.219 218.045 163.491 218.045 163.804H216.788C216.788 163.273 216.91 162.808 217.154 162.411C217.399 162.013 217.734 161.705 218.16 161.486C218.586 161.264 219.071 161.153 219.613 161.153C220.162 161.153 220.645 161.263 221.062 161.482C221.483 161.697 221.811 161.993 222.047 162.368C222.282 162.74 222.4 163.161 222.4 163.629C222.4 163.953 222.339 164.27 222.217 164.58C222.098 164.889 221.889 165.234 221.591 165.615C221.292 165.993 220.877 166.452 220.346 166.991L218.612 168.807V168.871H222.541V170H216.797ZM225.012 170.081C224.779 170.081 224.579 169.999 224.412 169.834C224.244 169.666 224.16 169.464 224.16 169.229C224.16 168.996 224.244 168.797 224.412 168.632C224.579 168.464 224.779 168.381 225.012 168.381C225.245 168.381 225.446 168.464 225.613 168.632C225.781 168.797 225.865 168.996 225.865 169.229C225.865 169.385 225.825 169.528 225.745 169.659C225.669 169.787 225.566 169.889 225.439 169.966C225.311 170.043 225.169 170.081 225.012 170.081ZM233.628 170.119C233.043 170.119 232.52 170.018 232.06 169.817C231.602 169.615 231.24 169.335 230.973 168.977C230.709 168.616 230.567 168.199 230.547 167.724H231.885C231.902 167.983 231.989 168.207 232.145 168.398C232.304 168.585 232.511 168.73 232.767 168.832C233.023 168.935 233.307 168.986 233.619 168.986C233.963 168.986 234.267 168.926 234.531 168.807C234.798 168.687 235.007 168.521 235.158 168.308C235.308 168.092 235.384 167.844 235.384 167.562C235.384 167.27 235.308 167.013 235.158 166.791C235.01 166.567 234.793 166.391 234.506 166.263C234.222 166.135 233.878 166.071 233.474 166.071H232.737V164.997H233.474C233.798 164.997 234.082 164.939 234.327 164.822C234.574 164.706 234.767 164.544 234.906 164.337C235.045 164.126 235.115 163.881 235.115 163.599C235.115 163.33 235.054 163.095 234.932 162.896C234.813 162.695 234.642 162.537 234.42 162.423C234.202 162.31 233.943 162.253 233.645 162.253C233.361 162.253 233.095 162.305 232.848 162.411C232.604 162.513 232.405 162.661 232.251 162.854C232.098 163.044 232.016 163.273 232.004 163.54H230.73C230.744 163.068 230.884 162.653 231.148 162.295C231.415 161.937 231.767 161.658 232.205 161.456C232.642 161.254 233.128 161.153 233.662 161.153C234.222 161.153 234.705 161.263 235.111 161.482C235.52 161.697 235.835 161.986 236.057 162.347C236.281 162.707 236.392 163.102 236.389 163.531C236.392 164.02 236.256 164.435 235.98 164.776C235.707 165.116 235.344 165.345 234.889 165.462V165.53C235.469 165.618 235.918 165.848 236.236 166.22C236.557 166.592 236.716 167.054 236.713 167.605C236.716 168.085 236.582 168.516 236.312 168.896C236.045 169.277 235.68 169.577 235.217 169.795C234.754 170.011 234.224 170.119 233.628 170.119ZM241.635 161.273V170H240.314V162.594H240.263L238.175 163.957V162.696L240.352 161.273H241.635Z" fill="black"/>
<defs>
<filter id="filter0_d_693_15" x="0" y="0" width="529.806" height="209" filterUnits="userSpaceOnUse" color-interpolation-filters="sRGB">
<feFlood flood-opacity="0" result="BackgroundImageFix"/>
<feColorMatrix in="SourceAlpha" type="matrix" values="0 0 0 0 0 0 0 0 0 0 0 0 0 0 0 0 0 0 127 0" result="hardAlpha"/>
<feMorphology radius="1" operator="erode" in="SourceAlpha" result="effect1_dropShadow_693_15"/>
<feOffset dx="1" dy="6"/>
<feGaussianBlur stdDeviation="4"/>
<feComposite in2="hardAlpha" operator="out"/>
<feColorMatrix type="matrix" values="0 0 0 0 0 0 0 0 0 0 0 0 0 0 0 0 0 0 0.05 0"/>
<feBlend mode="normal" in2="BackgroundImageFix" result="effect1_dropShadow_693_15"/>
<feBlend mode="normal" in="SourceGraphic" in2="effect1_dropShadow_693_15" result="shape"/>
</filter>
<filter id="filter1_d_693_15" x="411.306" y="59.6128" width="55.1774" height="88.7036" filterUnits="userSpaceOnUse" color-interpolation-filters="sRGB">
<feFlood flood-opacity="0" result="BackgroundImageFix"/>
<feColorMatrix in="SourceAlpha" type="matrix" values="0 0 0 0 0 0 0 0 0 0 0 0 0 0 0 0 0 0 127 0" result="hardAlpha"/>
<feOffset dy="4"/>
<feGaussianBlur stdDeviation="2"/>
<feComposite in2="hardAlpha" operator="out"/>
<feColorMatrix type="matrix" values="0 0 0 0 0 0 0 0 0 0 0 0 0 0 0 0 0 0 0.25 0"/>
<feBlend mode="normal" in2="BackgroundImageFix" result="effect1_dropShadow_693_15"/>
<feBlend mode="normal" in="SourceGraphic" in2="effect1_dropShadow_693_15" result="shape"/>
</filter>
<linearGradient id="paint0_linear_693_15" x1="425.426" y1="60.928" x2="474.6" y2="110.105" gradientUnits="userSpaceOnUse">
<stop stop-color="#DE2379"/>
<stop offset="1" stop-color="#E9714A"/>
</linearGradient>
<linearGradient id="paint1_linear_693_15" x1="415.564" y1="93.3998" x2="448.843" y2="126.679" gradientUnits="userSpaceOnUse">
<stop stop-color="#DE2379"/>
<stop offset="1" stop-color="#E9714A"/>
</linearGradient>
</defs>
</svg>
