<svg width="530" height="209" viewBox="0 0 530 209" fill="none" xmlns="http://www.w3.org/2000/svg">
<g filter="url(#filter0_d_693_16)">
<rect x="6" y="1" width="515.806" height="195" rx="15" fill="white"/>
</g>
<g filter="url(#filter1_d_693_16)">
<path d="M450.516 82.4678C450.694 82.4751 450.868 82.4823 451.045 82.4823C457.361 82.4823 462.48 77.3627 462.48 71.0475C462.48 64.7323 457.361 59.6128 451.045 59.6128C450.868 59.6128 450.69 59.6164 450.516 59.6273V59.6128H438.85C425.846 59.6164 415.306 69.8519 415.306 82.4823H426.335L450.516 82.4678V82.4678Z" fill="url(#paint0_linear_693_16)"/>
<path d="M451.045 93.1426C450.868 93.1426 450.69 93.1462 450.516 93.1571V93.1426H415.306L415.321 128.353C415.314 128.53 415.306 128.704 415.306 128.882C415.306 135.197 420.426 140.316 426.741 140.316C433.056 140.316 438.176 135.197 438.176 128.882C438.176 128.704 438.172 128.527 438.161 128.353H438.176V116.686C438.176 116.458 438.165 116.229 438.158 116.005L450.52 115.998C450.698 116.005 450.872 116.012 451.049 116.012C457.364 116.012 462.484 110.893 462.484 104.577C462.484 98.2621 457.364 93.1426 451.049 93.1426H451.045Z" fill="url(#paint1_linear_693_16)"/>
<path d="M446.074 137.45V128.077H449.353V137.45H446.074Z" fill="black"/>
<path d="M451.23 130.889V128.077H454.509V130.889H451.23ZM451.23 137.45V131.512H454.509V137.45H451.23Z" fill="black"/>
<path d="M459.509 134.012C459.542 134.41 459.752 134.62 460.132 134.638H461.382V137.45H460.132C458.118 137.45 456.911 136.66 456.513 135.08C456.426 134.733 456.382 134.378 456.382 134.012V128.073H459.506V129.946H461.379V132.758H459.506V134.008L459.509 134.012Z" fill="black"/>
</g>
<path d="M57.0107 60.5046V82.3228H52.3977V64.8831H52.2699L47.2734 68.0152V63.9243L52.6747 60.5046H57.0107ZM70.7509 82.8022C68.9185 82.7951 67.3418 82.3441 66.0208 81.4492C64.7069 80.5543 63.6948 79.2581 62.9846 77.5607C62.2814 75.8632 61.9334 73.8213 61.9405 71.435C61.9405 69.0557 62.2921 67.028 62.9952 65.3519C63.7054 63.6757 64.7175 62.4009 66.0314 61.5273C67.3525 60.6466 68.9256 60.2063 70.7509 60.2063C72.5762 60.2063 74.1458 60.6466 75.4597 61.5273C76.7807 62.408 77.7963 63.6864 78.5066 65.3625C79.2168 67.0316 79.5684 69.0557 79.5613 71.435C79.5613 73.8284 79.2061 75.8739 78.4959 77.5713C77.7928 79.2688 76.7843 80.5649 75.4703 81.4598C74.1564 82.3547 72.5833 82.8022 70.7509 82.8022ZM70.7509 78.9776C72.0009 78.9776 72.9988 78.349 73.7445 77.0919C74.4902 75.8348 74.8596 73.9492 74.8525 71.435C74.8525 69.7801 74.682 68.4023 74.3411 67.3014C74.0073 66.2006 73.5314 65.3732 72.9135 64.8192C72.3027 64.2652 71.5819 63.9882 70.7509 63.9882C69.508 63.9882 68.5137 64.6097 67.7679 65.8526C67.0222 67.0955 66.6458 68.9563 66.6387 71.435C66.6387 73.1111 66.8056 74.5103 67.1394 75.6324C67.4803 76.7475 67.9597 77.5855 68.5776 78.1466C69.1955 78.7006 69.9199 78.9776 70.7509 78.9776ZM94.793 78.2318V77.0813C94.793 76.2077 94.9776 75.4051 95.3469 74.6736C95.7234 73.935 96.2667 73.3455 96.9769 72.9051C97.6942 72.4577 98.5678 72.234 99.5977 72.234C100.642 72.234 101.519 72.4541 102.229 72.8945C102.946 73.3348 103.486 73.9243 103.848 74.663C104.218 75.3945 104.402 76.2006 104.402 77.0813V78.2318C104.402 79.1054 104.218 79.9115 103.848 80.6502C103.479 81.3817 102.936 81.9676 102.218 82.408C101.501 82.8554 100.627 83.0791 99.5977 83.0791C98.5536 83.0791 97.6765 82.8554 96.9663 82.408C96.256 81.9676 95.7163 81.3817 95.3469 80.6502C94.9776 79.9115 94.793 79.1054 94.793 78.2318ZM97.8931 77.0813V78.2318C97.8931 78.7361 98.0138 79.212 98.2553 79.6594C98.5039 80.1068 98.9513 80.3306 99.5977 80.3306C100.244 80.3306 100.684 80.1104 100.919 79.6701C101.16 79.2297 101.281 78.7503 101.281 78.2318V77.0813C101.281 76.5628 101.167 76.0799 100.94 75.6324C100.713 75.185 100.265 74.9612 99.5977 74.9612C98.9585 74.9612 98.5146 75.185 98.266 75.6324C98.0174 76.0799 97.8931 76.5628 97.8931 77.0813ZM83.5962 65.746V64.5955C83.5962 63.7148 83.7844 62.9087 84.1609 62.1772C84.5373 61.4385 85.0806 60.849 85.7908 60.4087C86.5082 59.9684 87.3746 59.7482 88.3903 59.7482C89.4414 59.7482 90.3221 59.9684 91.0323 60.4087C91.7425 60.849 92.2823 61.4385 92.6516 62.1772C93.021 62.9087 93.2056 63.7148 93.2056 64.5955V65.746C93.2056 66.6267 93.0174 67.4328 92.641 68.1644C92.2717 68.8959 91.7283 69.4818 91.011 69.9222C90.3008 70.3554 89.4272 70.572 88.3903 70.572C87.3533 70.572 86.4762 70.3519 85.7589 69.9115C85.0487 69.4641 84.5089 68.8782 84.1396 68.1537C83.7773 67.4222 83.5962 66.6196 83.5962 65.746ZM86.7177 64.5955V65.746C86.7177 66.2645 86.8384 66.7439 87.0799 67.1843C87.3285 67.6246 87.7653 67.8448 88.3903 67.8448C89.0437 67.8448 89.4876 67.6246 89.7219 67.1843C89.9634 66.7439 90.0842 66.2645 90.0842 65.746V64.5955C90.0842 64.077 89.9705 63.5941 89.7433 63.1466C89.516 62.6992 89.065 62.4755 88.3903 62.4755C87.7582 62.4755 87.3214 62.7027 87.0799 63.1573C86.8384 63.6118 86.7177 64.0912 86.7177 64.5955ZM85.0025 82.3228L100.002 60.5046H102.794L87.7937 82.3228H85.0025ZM132.887 57.1828V72.1828H136.877V57.1828H132.887ZM135.287 63.1228V66.3628H140.567V63.1228H135.287ZM118.517 73.2928V76.1728H132.947V77.6428H118.577V82.8628H122.537V80.3428H136.877V73.2928H118.517ZM118.577 81.8728V84.8128H137.687V81.8728H118.577ZM115.007 59.2528V62.2528H131.357V59.2528H115.007ZM123.197 62.9128C119.057 62.9128 116.357 64.6828 116.357 67.4728C116.357 70.2628 119.057 71.9728 123.197 71.9728C127.307 71.9728 130.007 70.2628 130.007 67.4728C130.007 64.6828 127.307 62.9128 123.197 62.9128ZM123.197 65.7028C125.057 65.7028 126.197 66.3028 126.197 67.4728C126.197 68.5828 125.057 69.1828 123.197 69.1828C121.337 69.1828 120.197 68.5828 120.197 67.4728C120.197 66.3028 121.337 65.7028 123.197 65.7028ZM121.187 57.0028V61.3828H125.177V57.0028H121.187ZM161.684 57.2428V77.1928H165.704V57.2428H161.684ZM147.194 81.3328V84.5128H166.394V81.3328H147.194ZM147.194 75.1828V82.6228H151.184V75.1828H147.194ZM150.584 58.9828C146.324 58.9828 143.024 61.9228 143.024 66.0328C143.024 70.1128 146.324 73.0828 150.584 73.0828C154.844 73.0828 158.114 70.1128 158.114 66.0328C158.114 61.9228 154.844 58.9828 150.584 58.9828ZM150.584 62.4328C152.624 62.4328 154.214 63.7528 154.214 66.0328C154.214 68.2828 152.624 69.6028 150.584 69.6028C148.514 69.6028 146.924 68.2828 146.924 66.0328C146.924 63.7528 148.514 62.4328 150.584 62.4328Z" fill="#FF9B3F"/>
<path d="M47.3303 137V118.818H59.5817V121.988H51.1744V126.32H58.9513V129.489H51.1744V133.831H59.6172V137H47.3303ZM65.9227 118.818L70.3172 132.632H70.4859L74.8893 118.818H79.1507L72.8829 137H67.9291L61.6524 118.818H65.9227ZM81.339 137V118.818H93.5905V121.988H85.1831V126.32H92.9601V129.489H85.1831V133.831H93.626V137H81.339ZM111.854 118.818V137H108.534L100.624 125.556H100.491V137H96.6467V118.818H100.02L107.868 130.253H108.028V118.818H111.854ZM114.338 121.988V118.818H129.271V121.988H123.704V137H119.904V121.988H114.338ZM151.861 116.075V129.425H155.211V116.075H151.861ZM154.236 121.55V124.25H158.236V121.55H154.236ZM147.611 129.85C142.836 129.85 139.761 131.625 139.761 134.55C139.761 137.5 142.836 139.25 147.611 139.25C152.361 139.25 155.436 137.5 155.436 134.55C155.436 131.625 152.361 129.85 147.611 129.85ZM147.611 132.5C150.536 132.5 152.161 133.15 152.161 134.55C152.161 135.925 150.536 136.6 147.611 136.6C144.661 136.6 143.036 135.925 143.036 134.55C143.036 133.15 144.661 132.5 147.611 132.5ZM137.736 125.575V128.225H139.661C144.886 128.225 147.561 128.125 150.386 127.5L150.061 124.85C147.286 125.45 144.761 125.575 139.661 125.575H137.736ZM137.736 117.625V127.375H141.036V120.275H148.086V117.625H137.736ZM165.134 120.15V121C165.134 123.55 163.509 126.1 159.759 127.125L161.309 129.7C165.734 128.45 167.809 124.95 167.809 121V120.15H165.134ZM165.759 120.15V121C165.759 124.8 167.884 128.15 172.334 129.325L173.834 126.725C170.109 125.75 168.459 123.375 168.459 121V120.15H165.759ZM160.584 118.375V120.975H173.009V118.375H160.584ZM165.134 116V119.5H168.459V116H165.134ZM172.459 122.125V124.8H176.859V122.125H172.459ZM175.984 116.075V129.625H179.309V116.075H175.984ZM163.884 130.65V138.975H179.309V130.65H163.884ZM176.059 133.25V136.35H167.159V133.25H176.059Z" fill="black"/>
<path d="M52.252 146.024V147.968C52.252 149.948 51.016 152.036 49.444 152.828L50.056 153.62C51.772 152.708 53.068 150.368 53.068 147.968V146.024H52.252ZM52.432 146.024V147.968C52.432 150.296 53.692 152.516 55.372 153.416L55.984 152.624C54.448 151.856 53.236 149.876 53.236 147.968V146.024H52.432ZM56.932 145.088V155.936H57.94V145.088H56.932ZM57.7 149.48V150.32H59.716V149.48H57.7ZM63.0511 148.76V150.812H64.0351V148.76H63.0511ZM67.0351 148.76V150.812H68.0191V148.76H67.0351ZM60.6271 150.452V151.256H70.4311V150.452H60.6271ZM65.5231 152.072C63.1951 152.072 61.8031 152.756 61.8031 153.992C61.8031 155.228 63.1951 155.924 65.5231 155.924C67.8511 155.924 69.2431 155.228 69.2431 153.992C69.2431 152.756 67.8511 152.072 65.5231 152.072ZM65.5231 152.84C67.2271 152.84 68.2351 153.26 68.2351 153.992C68.2351 154.736 67.2271 155.144 65.5231 155.144C63.8311 155.144 62.8111 154.736 62.8111 153.992C62.8111 153.26 63.8311 152.84 65.5231 152.84ZM65.5351 145.28C63.1711 145.28 61.7191 146.036 61.7191 147.308C61.7191 148.568 63.1711 149.312 65.5351 149.312C67.8871 149.312 69.3511 148.568 69.3511 147.308C69.3511 146.036 67.8871 145.28 65.5351 145.28ZM65.5351 146.06C67.2631 146.06 68.3311 146.516 68.3311 147.308C68.3311 148.088 67.2631 148.544 65.5351 148.544C63.8071 148.544 62.7391 148.088 62.7391 147.308C62.7391 146.516 63.8071 146.06 65.5351 146.06ZM79.5741 145.088V155.936H80.5701V145.088H79.5741ZM76.3941 146.252V146.42C76.3941 149.3 74.9421 151.604 71.8101 153.116L72.3381 153.92C75.9621 152.144 77.3781 149.396 77.3781 146.252H76.3941ZM72.3021 146.252V147.068H76.8261V146.252H72.3021ZM90.1332 145.088V153.02H91.1292V145.088H90.1332ZM90.8172 148.376V149.204H92.7372V148.376H90.8172ZM87.1692 145.928V146.36C87.1692 148.448 85.4532 150.128 82.7172 150.968L83.1492 151.784C86.2572 150.788 88.2252 148.736 88.2252 145.928H87.1692ZM83.1612 145.928V146.744H87.6732V145.928H83.1612ZM84.3612 154.88V155.696H91.6092V154.88H84.3612ZM84.3612 152.216V155.204H85.3572V152.216H84.3612ZM97.1715 155V154.045L100.125 150.986C100.44 150.653 100.7 150.362 100.904 150.112C101.112 149.859 101.267 149.619 101.369 149.392C101.471 149.165 101.522 148.923 101.522 148.668C101.522 148.378 101.454 148.128 101.318 147.918C101.181 147.705 100.995 147.541 100.76 147.428C100.524 147.311 100.258 147.253 99.9627 147.253C99.6502 147.253 99.3775 147.317 99.1445 147.445C98.9116 147.572 98.7326 147.753 98.6076 147.986C98.4826 148.219 98.4201 148.491 98.4201 148.804H97.163C97.163 148.273 97.2852 147.808 97.5295 147.411C97.7738 147.013 98.109 146.705 98.5352 146.486C98.9613 146.264 99.4457 146.153 99.9883 146.153C100.537 146.153 101.02 146.263 101.437 146.482C101.858 146.697 102.186 146.993 102.422 147.368C102.657 147.74 102.775 148.161 102.775 148.629C102.775 148.953 102.714 149.27 102.592 149.58C102.473 149.889 102.264 150.234 101.966 150.615C101.667 150.993 101.252 151.452 100.721 151.991L98.9869 153.807V153.871H102.916V155H97.1715ZM107.569 155.145C106.896 155.142 106.321 154.964 105.843 154.612C105.366 154.26 105.001 153.747 104.748 153.074C104.495 152.401 104.369 151.589 104.369 150.641C104.369 149.695 104.495 148.886 104.748 148.216C105.004 147.545 105.37 147.034 105.848 146.682C106.328 146.33 106.902 146.153 107.569 146.153C108.237 146.153 108.809 146.331 109.287 146.686C109.764 147.038 110.129 147.55 110.382 148.22C110.637 148.888 110.765 149.695 110.765 150.641C110.765 151.592 110.639 152.405 110.386 153.078C110.133 153.749 109.768 154.261 109.291 154.616C108.814 154.969 108.24 155.145 107.569 155.145ZM107.569 154.007C108.16 154.007 108.622 153.719 108.954 153.142C109.289 152.565 109.457 151.732 109.457 150.641C109.457 149.916 109.38 149.304 109.227 148.804C109.076 148.301 108.859 147.92 108.575 147.662C108.294 147.401 107.958 147.27 107.569 147.27C106.981 147.27 106.52 147.56 106.184 148.139C105.849 148.719 105.68 149.553 105.677 150.641C105.677 151.368 105.752 151.983 105.903 152.486C106.056 152.986 106.274 153.365 106.555 153.624C106.836 153.879 107.174 154.007 107.569 154.007ZM112.277 155V154.045L115.23 150.986C115.545 150.653 115.805 150.362 116.01 150.112C116.217 149.859 116.372 149.619 116.474 149.392C116.577 149.165 116.628 148.923 116.628 148.668C116.628 148.378 116.56 148.128 116.423 147.918C116.287 147.705 116.101 147.541 115.865 147.428C115.629 147.311 115.364 147.253 115.068 147.253C114.756 147.253 114.483 147.317 114.25 147.445C114.017 147.572 113.838 147.753 113.713 147.986C113.588 148.219 113.526 148.491 113.526 148.804H112.268C112.268 148.273 112.391 147.808 112.635 147.411C112.879 147.013 113.214 146.705 113.641 146.486C114.067 146.264 114.551 146.153 115.094 146.153C115.642 146.153 116.125 146.263 116.543 146.482C116.963 146.697 117.291 146.993 117.527 147.368C117.763 147.74 117.881 148.161 117.881 148.629C117.881 148.953 117.82 149.27 117.697 149.58C117.578 149.889 117.369 150.234 117.071 150.615C116.773 150.993 116.358 151.452 115.827 151.991L114.092 153.807V153.871H118.021V155H112.277ZM119.636 155V154.045L122.589 150.986C122.905 150.653 123.165 150.362 123.369 150.112C123.577 149.859 123.732 149.619 123.834 149.392C123.936 149.165 123.987 148.923 123.987 148.668C123.987 148.378 123.919 148.128 123.783 147.918C123.646 147.705 123.46 147.541 123.224 147.428C122.989 147.311 122.723 147.253 122.428 147.253C122.115 147.253 121.842 147.317 121.609 147.445C121.376 147.572 121.197 147.753 121.072 147.986C120.947 148.219 120.885 148.491 120.885 148.804H119.628C119.628 148.273 119.75 147.808 119.994 147.411C120.239 147.013 120.574 146.705 121 146.486C121.426 146.264 121.911 146.153 122.453 146.153C123.001 146.153 123.484 146.263 123.902 146.482C124.322 146.697 124.651 146.993 124.886 147.368C125.122 147.74 125.24 148.161 125.24 148.629C125.24 148.953 125.179 149.27 125.057 149.58C124.938 149.889 124.729 150.234 124.43 150.615C124.132 150.993 123.717 151.452 123.186 151.991L121.452 153.807V153.871H125.381V155H119.636ZM127.852 155.081C127.619 155.081 127.419 154.999 127.251 154.834C127.084 154.666 127 154.464 127 154.229C127 153.996 127.084 153.797 127.251 153.632C127.419 153.464 127.619 153.381 127.852 153.381C128.085 153.381 128.286 153.464 128.453 153.632C128.621 153.797 128.705 153.996 128.705 154.229C128.705 154.385 128.665 154.528 128.585 154.659C128.509 154.787 128.406 154.889 128.278 154.966C128.151 155.043 128.009 155.081 127.852 155.081ZM136.74 146.273V155H135.419V147.594H135.368L133.28 148.957V147.696L135.458 146.273H136.74ZM139.101 155V154.045L142.054 150.986C142.37 150.653 142.63 150.362 142.834 150.112C143.042 149.859 143.196 149.619 143.299 149.392C143.401 149.165 143.452 148.923 143.452 148.668C143.452 148.378 143.384 148.128 143.248 147.918C143.111 147.705 142.925 147.541 142.689 147.428C142.453 147.311 142.188 147.253 141.892 147.253C141.58 147.253 141.307 147.317 141.074 147.445C140.841 147.572 140.662 147.753 140.537 147.986C140.412 148.219 140.35 148.491 140.35 148.804H139.093C139.093 148.273 139.215 147.808 139.459 147.411C139.703 147.013 140.039 146.705 140.465 146.486C140.891 146.264 141.375 146.153 141.918 146.153C142.466 146.153 142.949 146.263 143.367 146.482C143.787 146.697 144.115 146.993 144.351 147.368C144.587 147.74 144.705 148.161 144.705 148.629C144.705 148.953 144.644 149.27 144.522 149.58C144.402 149.889 144.194 150.234 143.895 150.615C143.597 150.993 143.182 151.452 142.651 151.991L140.917 153.807V153.871H144.846V155H139.101ZM147.317 155.081C147.084 155.081 146.884 154.999 146.716 154.834C146.549 154.666 146.465 154.464 146.465 154.229C146.465 153.996 146.549 153.797 146.716 153.632C146.884 153.464 147.084 153.381 147.317 153.381C147.55 153.381 147.75 153.464 147.918 153.632C148.086 153.797 148.169 153.996 148.169 154.229C148.169 154.385 148.13 154.528 148.05 154.659C147.973 154.787 147.871 154.889 147.743 154.966C147.615 155.043 147.473 155.081 147.317 155.081ZM152.581 155.145C151.908 155.142 151.332 154.964 150.855 154.612C150.378 154.26 150.013 153.747 149.76 153.074C149.507 152.401 149.381 151.589 149.381 150.641C149.381 149.695 149.507 148.886 149.76 148.216C150.016 147.545 150.382 147.034 150.859 146.682C151.339 146.33 151.913 146.153 152.581 146.153C153.249 146.153 153.821 146.331 154.298 146.686C154.776 147.038 155.141 147.55 155.393 148.22C155.649 148.888 155.777 149.695 155.777 150.641C155.777 151.592 155.651 152.405 155.398 153.078C155.145 153.749 154.78 154.261 154.303 154.616C153.825 154.969 153.251 155.145 152.581 155.145ZM152.581 154.007C153.172 154.007 153.634 153.719 153.966 153.142C154.301 152.565 154.469 151.732 154.469 150.641C154.469 149.916 154.392 149.304 154.239 148.804C154.088 148.301 153.871 147.92 153.587 147.662C153.305 147.401 152.97 147.27 152.581 147.27C151.993 147.27 151.531 147.56 151.196 148.139C150.861 148.719 150.692 149.553 150.689 150.641C150.689 151.368 150.764 151.983 150.915 152.486C151.068 152.986 151.286 153.365 151.567 153.624C151.848 153.879 152.186 154.007 152.581 154.007ZM160.6 146.273V155H159.279V147.594H159.228L157.14 148.957V147.696L159.317 146.273H160.6ZM170.01 150.082V151.19H166.141V150.082H170.01ZM174.867 155V154.045L177.82 150.986C178.135 150.653 178.395 150.362 178.6 150.112C178.807 149.859 178.962 149.619 179.064 149.392C179.167 149.165 179.218 148.923 179.218 148.668C179.218 148.378 179.15 148.128 179.013 147.918C178.877 147.705 178.691 147.541 178.455 147.428C178.219 147.311 177.953 147.253 177.658 147.253C177.346 147.253 177.073 147.317 176.84 147.445C176.607 147.572 176.428 147.753 176.303 147.986C176.178 148.219 176.115 148.491 176.115 148.804H174.858C174.858 148.273 174.98 147.808 175.225 147.411C175.469 147.013 175.804 146.705 176.23 146.486C176.657 146.264 177.141 146.153 177.684 146.153C178.232 146.153 178.715 146.263 179.132 146.482C179.553 146.697 179.881 146.993 180.117 147.368C180.353 147.74 180.471 148.161 180.471 148.629C180.471 148.953 180.409 149.27 180.287 149.58C180.168 149.889 179.959 150.234 179.661 150.615C179.363 150.993 178.948 151.452 178.417 151.991L176.682 153.807V153.871H180.611V155H174.867ZM185.265 155.145C184.591 155.142 184.016 154.964 183.539 154.612C183.061 154.26 182.696 153.747 182.444 153.074C182.191 152.401 182.064 151.589 182.064 150.641C182.064 149.695 182.191 148.886 182.444 148.216C182.699 147.545 183.066 147.034 183.543 146.682C184.023 146.33 184.597 146.153 185.265 146.153C185.932 146.153 186.505 146.331 186.982 146.686C187.459 147.038 187.824 147.55 188.077 148.22C188.333 148.888 188.461 149.695 188.461 150.641C188.461 151.592 188.334 152.405 188.081 153.078C187.828 153.749 187.463 154.261 186.986 154.616C186.509 154.969 185.935 155.145 185.265 155.145ZM185.265 154.007C185.855 154.007 186.317 153.719 186.65 153.142C186.985 152.565 187.152 151.732 187.152 150.641C187.152 149.916 187.076 149.304 186.922 148.804C186.772 148.301 186.554 147.92 186.27 147.662C185.989 147.401 185.654 147.27 185.265 147.27C184.676 147.27 184.215 147.56 183.88 148.139C183.544 148.719 183.375 149.553 183.373 150.641C183.373 151.368 183.448 151.983 183.598 152.486C183.752 152.986 183.969 153.365 184.25 153.624C184.532 153.879 184.87 154.007 185.265 154.007ZM189.972 155V154.045L192.925 150.986C193.241 150.653 193.501 150.362 193.705 150.112C193.913 149.859 194.067 149.619 194.17 149.392C194.272 149.165 194.323 148.923 194.323 148.668C194.323 148.378 194.255 148.128 194.119 147.918C193.982 147.705 193.796 147.541 193.56 147.428C193.325 147.311 193.059 147.253 192.763 147.253C192.451 147.253 192.178 147.317 191.945 147.445C191.712 147.572 191.533 147.753 191.408 147.986C191.283 148.219 191.221 148.491 191.221 148.804H189.964C189.964 148.273 190.086 147.808 190.33 147.411C190.575 147.013 190.91 146.705 191.336 146.486C191.762 146.264 192.246 146.153 192.789 146.153C193.337 146.153 193.82 146.263 194.238 146.482C194.658 146.697 194.987 146.993 195.222 147.368C195.458 147.74 195.576 148.161 195.576 148.629C195.576 148.953 195.515 149.27 195.393 149.58C195.273 149.889 195.065 150.234 194.766 150.615C194.468 150.993 194.053 151.452 193.522 151.991L191.788 153.807V153.871H195.717V155H189.972ZM200.37 155.119C199.785 155.119 199.262 155.018 198.802 154.817C198.344 154.615 197.982 154.335 197.715 153.977C197.451 153.616 197.309 153.199 197.289 152.724H198.627C198.644 152.983 198.731 153.207 198.887 153.398C199.046 153.585 199.254 153.73 199.509 153.832C199.765 153.935 200.049 153.986 200.362 153.986C200.705 153.986 201.009 153.926 201.273 153.807C201.54 153.687 201.749 153.521 201.9 153.308C202.05 153.092 202.126 152.844 202.126 152.562C202.126 152.27 202.05 152.013 201.9 151.791C201.752 151.567 201.535 151.391 201.248 151.263C200.964 151.135 200.62 151.071 200.217 151.071H199.479V149.997H200.217C200.54 149.997 200.825 149.939 201.069 149.822C201.316 149.706 201.509 149.544 201.648 149.337C201.788 149.126 201.857 148.881 201.857 148.599C201.857 148.33 201.796 148.095 201.674 147.896C201.555 147.695 201.384 147.537 201.163 147.423C200.944 147.31 200.685 147.253 200.387 147.253C200.103 147.253 199.837 147.305 199.59 147.411C199.346 147.513 199.147 147.661 198.994 147.854C198.84 148.044 198.758 148.273 198.746 148.54H197.472C197.487 148.068 197.626 147.653 197.89 147.295C198.157 146.937 198.509 146.658 198.947 146.456C199.384 146.254 199.87 146.153 200.404 146.153C200.964 146.153 201.447 146.263 201.853 146.482C202.262 146.697 202.577 146.986 202.799 147.347C203.023 147.707 203.134 148.102 203.131 148.531C203.134 149.02 202.998 149.435 202.722 149.776C202.45 150.116 202.086 150.345 201.631 150.462V150.53C202.211 150.618 202.66 150.848 202.978 151.22C203.299 151.592 203.458 152.054 203.455 152.605C203.458 153.085 203.325 153.516 203.055 153.896C202.788 154.277 202.423 154.577 201.96 154.795C201.496 155.011 200.967 155.119 200.37 155.119ZM205.665 155.081C205.432 155.081 205.232 154.999 205.064 154.834C204.896 154.666 204.812 154.464 204.812 154.229C204.812 153.996 204.896 153.797 205.064 153.632C205.232 153.464 205.432 153.381 205.665 153.381C205.898 153.381 206.098 153.464 206.266 153.632C206.433 153.797 206.517 153.996 206.517 154.229C206.517 154.385 206.477 154.528 206.398 154.659C206.321 154.787 206.219 154.889 206.091 154.966C205.963 155.043 205.821 155.081 205.665 155.081ZM214.28 155.145C213.607 155.142 213.032 154.964 212.554 154.612C212.077 154.26 211.712 153.747 211.459 153.074C211.206 152.401 211.08 151.589 211.08 150.641C211.08 149.695 211.206 148.886 211.459 148.216C211.715 147.545 212.081 147.034 212.559 146.682C213.039 146.33 213.613 146.153 214.28 146.153C214.948 146.153 215.52 146.331 215.998 146.686C216.475 147.038 216.84 147.55 217.093 148.22C217.348 148.888 217.476 149.695 217.476 150.641C217.476 151.592 217.35 152.405 217.097 153.078C216.844 153.749 216.479 154.261 216.002 154.616C215.525 154.969 214.951 155.145 214.28 155.145ZM214.28 154.007C214.871 154.007 215.333 153.719 215.665 153.142C216 152.565 216.168 151.732 216.168 150.641C216.168 149.916 216.091 149.304 215.938 148.804C215.787 148.301 215.57 147.92 215.286 147.662C215.005 147.401 214.669 147.27 214.28 147.27C213.692 147.27 213.23 147.56 212.895 148.139C212.56 148.719 212.391 149.553 212.388 150.641C212.388 151.368 212.463 151.983 212.614 152.486C212.767 152.986 212.985 153.365 213.266 153.624C213.547 153.879 213.885 154.007 214.28 154.007ZM222.026 155.119C221.441 155.119 220.918 155.018 220.458 154.817C220.001 154.615 219.638 154.335 219.371 153.977C219.107 153.616 218.965 153.199 218.945 152.724H220.283C220.3 152.983 220.387 153.207 220.543 153.398C220.702 153.585 220.91 153.73 221.165 153.832C221.421 153.935 221.705 153.986 222.018 153.986C222.362 153.986 222.665 153.926 222.93 153.807C223.197 153.687 223.406 153.521 223.556 153.308C223.707 153.092 223.782 152.844 223.782 152.562C223.782 152.27 223.707 152.013 223.556 151.791C223.408 151.567 223.191 151.391 222.904 151.263C222.62 151.135 222.276 151.071 221.873 151.071H221.136V149.997H221.873C222.197 149.997 222.481 149.939 222.725 149.822C222.972 149.706 223.165 149.544 223.305 149.337C223.444 149.126 223.513 148.881 223.513 148.599C223.513 148.33 223.452 148.095 223.33 147.896C223.211 147.695 223.04 147.537 222.819 147.423C222.6 147.31 222.342 147.253 222.043 147.253C221.759 147.253 221.494 147.305 221.246 147.411C221.002 147.513 220.803 147.661 220.65 147.854C220.496 148.044 220.414 148.273 220.403 148.54H219.129C219.143 148.068 219.282 147.653 219.546 147.295C219.813 146.937 220.165 146.658 220.603 146.456C221.04 146.254 221.526 146.153 222.06 146.153C222.62 146.153 223.103 146.263 223.509 146.482C223.918 146.697 224.234 146.986 224.455 147.347C224.68 147.707 224.79 148.102 224.788 148.531C224.79 149.02 224.654 149.435 224.379 149.776C224.106 150.116 223.742 150.345 223.288 150.462V150.53C223.867 150.618 224.316 150.848 224.634 151.22C224.955 151.592 225.114 152.054 225.112 152.605C225.114 153.085 224.981 153.516 224.711 153.896C224.444 154.277 224.079 154.577 223.616 154.795C223.153 155.011 222.623 155.119 222.026 155.119ZM227.321 155.081C227.088 155.081 226.888 154.999 226.72 154.834C226.553 154.666 226.469 154.464 226.469 154.229C226.469 153.996 226.553 153.797 226.72 153.632C226.888 153.464 227.088 153.381 227.321 153.381C227.554 153.381 227.754 153.464 227.922 153.632C228.089 153.797 228.173 153.996 228.173 154.229C228.173 154.385 228.134 154.528 228.054 154.659C227.977 154.787 227.875 154.889 227.747 154.966C227.619 155.043 227.477 155.081 227.321 155.081ZM235.936 155.145C235.263 155.142 234.688 154.964 234.211 154.612C233.733 154.26 233.368 153.747 233.115 153.074C232.863 152.401 232.736 151.589 232.736 150.641C232.736 149.695 232.863 148.886 233.115 148.216C233.371 147.545 233.738 147.034 234.215 146.682C234.695 146.33 235.269 146.153 235.936 146.153C236.604 146.153 237.176 146.331 237.654 146.686C238.131 147.038 238.496 147.55 238.749 148.22C239.005 148.888 239.132 149.695 239.132 150.641C239.132 151.592 239.006 152.405 238.753 153.078C238.5 153.749 238.135 154.261 237.658 154.616C237.181 154.969 236.607 155.145 235.936 155.145ZM235.936 154.007C236.527 154.007 236.989 153.719 237.321 153.142C237.657 152.565 237.824 151.732 237.824 150.641C237.824 149.916 237.748 149.304 237.594 148.804C237.444 148.301 237.226 147.92 236.942 147.662C236.661 147.401 236.326 147.27 235.936 147.27C235.348 147.27 234.887 147.56 234.551 148.139C234.216 148.719 234.047 149.553 234.044 150.641C234.044 151.368 234.12 151.983 234.27 152.486C234.424 152.986 234.641 153.365 234.922 153.624C235.203 153.879 235.542 154.007 235.936 154.007ZM243.955 146.273V155H242.634V147.594H242.583L240.495 148.957V147.696L242.673 146.273H243.955Z" fill="black"/>
<defs>
<filter id="filter0_d_693_16" x="0" y="0" width="529.806" height="209" filterUnits="userSpaceOnUse" color-interpolation-filters="sRGB">
<feFlood flood-opacity="0" result="BackgroundImageFix"/>
<feColorMatrix in="SourceAlpha" type="matrix" values="0 0 0 0 0 0 0 0 0 0 0 0 0 0 0 0 0 0 127 0" result="hardAlpha"/>
<feMorphology radius="1" operator="erode" in="SourceAlpha" result="effect1_dropShadow_693_16"/>
<feOffset dx="1" dy="6"/>
<feGaussianBlur stdDeviation="4"/>
<feComposite in2="hardAlpha" operator="out"/>
<feColorMatrix type="matrix" values="0 0 0 0 0 0 0 0 0 0 0 0 0 0 0 0 0 0 0.05 0"/>
<feBlend mode="normal" in2="BackgroundImageFix" result="effect1_dropShadow_693_16"/>
<feBlend mode="normal" in="SourceGraphic" in2="effect1_dropShadow_693_16" result="shape"/>
</filter>
<filter id="filter1_d_693_16" x="411.306" y="59.6128" width="55.1774" height="88.7036" filterUnits="userSpaceOnUse" color-interpolation-filters="sRGB">
<feFlood flood-opacity="0" result="BackgroundImageFix"/>
<feColorMatrix in="SourceAlpha" type="matrix" values="0 0 0 0 0 0 0 0 0 0 0 0 0 0 0 0 0 0 127 0" result="hardAlpha"/>
<feOffset dy="4"/>
<feGaussianBlur stdDeviation="2"/>
<feComposite in2="hardAlpha" operator="out"/>
<feColorMatrix type="matrix" values="0 0 0 0 0 0 0 0 0 0 0 0 0 0 0 0 0 0 0.25 0"/>
<feBlend mode="normal" in2="BackgroundImageFix" result="effect1_dropShadow_693_16"/>
<feBlend mode="normal" in="SourceGraphic" in2="effect1_dropShadow_693_16" result="shape"/>
</filter>
<linearGradient id="paint0_linear_693_16" x1="425.426" y1="60.928" x2="474.6" y2="110.105" gradientUnits="userSpaceOnUse">
<stop stop-color="#DE2379"/>
<stop offset="1" stop-color="#E9714A"/>
</linearGradient>
<linearGradient id="paint1_linear_693_16" x1="415.564" y1="93.3998" x2="448.843" y2="126.679" gradientUnits="userSpaceOnUse">
<stop stop-color="#DE2379"/>
<stop offset="1" stop-color="#E9714A"/>
</linearGradient>
</defs>
</svg>
